<?xml version="1.0" encoding="UTF-8" standalone="no"?>
<svg
   xmlns="http://www.w3.org/2000/svg"
   width="280"
   height="280"
   viewBox="0 0 74.083332 74.083335"
   version="1.1"
   id="svg830">
  <defs id="defs824" />
  <g
     id="layer1"
     transform="translate(0,-222.91666)">
    <path
       style="opacity:1;fill:#000000;fill-opacity:1;stroke-width:0.16063665;stroke-miterlimit:4;stroke-dasharray:none"
       d="m 1.6100158,222.9447 c -0.87123491,0 -1.57303091,0.69658 -1.57303091,1.56197 v 70.93107 c 0,0.86538 0.701796,1.56196 1.57303091,1.56196 H 72.547804 c 0.871236,0 1.572514,-0.69658 1.572514,-1.56196 v -70.93107 c 0,-0.86539 -0.701278,-1.56197 -1.572514,-1.56197 z m 2.923336,2.62808 H 69.624468 c 1.002387,0 1.809192,0.8014 1.809192,1.79707 v 64.65445 c 0,0.99567 -0.806805,1.79706 -1.809192,1.79706 H 4.5333518 c -1.002386,0 -1.809192,-0.80139 -1.809192,-1.79706 v -64.65445 c 0,-0.99567 0.806806,-1.79707 1.809192,-1.79707 z"
       id="rect1403-3" />
  </g>
</svg>
