<?xml version="1.0" encoding="UTF-8" standalone="no"?>
<!-- Created with Inkscape (http://www.inkscape.org/) -->

<svg
   xmlns="http://www.w3.org/2000/svg"
   width="280"
   height="330"
   viewBox="0 0 74.083332 87.312502"
   version="1.1"
   id="svg830">
  <defs
     id="defs824" />
  <metadata
     id="metadata827">
   </metadata>
  <g
     id="layer1"
     transform="translate(0,-209.68749)">
    <path
       style="opacity:1;fill:#000000;fill-opacity:1;stroke-width:0.60917741;stroke-miterlimit:4;stroke-dasharray:none"
       d="M 5.9511719 0.0078125 C 2.6583162 0.0078125 0.005859375 2.6583162 0.005859375 5.9511719 L 0.005859375 275.84766 C 0.005859375 279.14051 2.6583162 281.79102 5.9511719 281.79102 L 274.0625 281.79102 C 277.35536 281.79102 280.00586 279.14051 280.00586 275.84766 L 280.00586 5.9511719 C 280.00586 2.6583162 277.35536 0.0078125 274.0625 0.0078125 L 5.9511719 0.0078125 z M 17 10.007812 L 263.01367 10.007812 C 266.80222 10.007812 269.85156 13.057159 269.85156 16.845703 L 269.85156 262.85938 C 269.85156 266.64792 266.80222 269.69727 263.01367 269.69727 L 17 269.69727 C 13.211456 269.69727 10.162109 266.64792 10.162109 262.85938 L 10.162109 16.845703 C 10.162109 13.057159 13.211456 10.007812 17 10.007812 z "
       transform="matrix(0.26458333,0,0,0.26458333,0,209.68749)"
       id="rect1403" />
    <text
       xml:space="preserve"
       style="font-style:normal;font-weight:normal;font-size:6.87131071px;line-height:1.25;font-family:sans-serif;text-align:center;letter-spacing:0px;word-spacing:0px;text-anchor:middle;fill:#000000;fill-opacity:1;stroke:none;stroke-width:0.17178279"
       x="42.186569"
       y="257.7037"
       id="text1483"
       transform="scale(0.87702781,1.1402147)"><tspan
         id="tspan1481"
         x="42.186569"
         y="257.7037"
         style="font-style:normal;font-variant:normal;font-weight:bold;font-stretch:normal;font-family:sans-serif;-inkscape-font-specification:'sans-serif Bold';text-align:center;text-anchor:middle;stroke-width:0.17178279">SCAN ME</tspan></text>
    <path
       style="opacity:1;fill:#000000;fill-opacity:1;stroke-width:0.7362873;stroke-miterlimit:4;stroke-dasharray:none"
       d="M 22.765625 285 C 10.548956 285 0.71484375 294.83607 0.71484375 307.05273 L 0.71484375 307.94922 C 0.71484375 320.16589 10.548956 330 22.765625 330 L 256.87695 330 C 269.09362 330 278.92773 320.16589 278.92773 307.94922 L 278.92773 307.05273 C 278.92773 294.83607 269.09362 285 256.87695 285 L 22.765625 285 z M 26.480469 291.78516 L 253.69922 291.78516 C 262.03758 291.78516 268.75 298.49953 268.75 306.83789 L 268.75 307.44922 C 268.75 315.78758 262.03758 322.5 253.69922 322.5 L 26.480469 322.5 C 18.142104 322.5 11.427734 315.78758 11.427734 307.44922 L 11.427734 306.83789 C 11.427734 298.49953 18.142104 291.78516 26.480469 291.78516 z "
       transform="matrix(0.26458333,0,0,0.26458333,0,209.68749)"
       id="rect1543" />
  </g>
</svg>
