<?xml version="1.0" encoding="UTF-8" standalone="no"?>
<!-- Created with Inkscape (http://www.inkscape.org/) -->

<svg
   xmlns="http://www.w3.org/2000/svg"
   width="280"
   height="330"
   viewBox="0 0 74.083332 87.312502"
   version="1.1"
   id="svg830">
  <defs
     id="defs824" />
  <metadata
     id="metadata827">
  </metadata>
  <g
     id="layer1"
     transform="translate(0,-209.68749)">
    <path
       style="opacity:1;fill:#000000;fill-opacity:1;stroke-width:0.60917741;stroke-miterlimit:4;stroke-dasharray:none"
       d="M 0 273.57227 L 0 324.94922 C 0 328.24206 2.652456 330.89062 5.9453125 330.89062 L 274.05664 330.89062 C 277.3495 330.89062 280 328.24206 280 324.94922 L 280 273.57227 L 271.99414 273.57227 L 269.8457 273.57227 L 10.15625 273.57227 L 8.5175781 273.57227 L 0 273.57227 z "
       transform="matrix(0.26458333,0,0,0.26458333,0,209.68749)"
       id="rect1403-3-6" />
    <text
       xml:space="preserve"
       style="font-style:normal;font-weight:normal;font-size:9.34494591px;line-height:1.25;font-family:sans-serif;text-align:center;letter-spacing:0px;word-spacing:0px;text-anchor:middle;fill:#ffffff;fill-opacity:1;stroke:none;stroke-width:0.23362364"
       x="41.993233"
       y="258.409"
       id="text1414"
       transform="scale(0.88298701,1.1325195)"><tspan
         id="tspan1412"
         x="41.993233"
         y="258.409"
         style="font-style:normal;font-variant:normal;font-weight:normal;font-stretch:normal;font-family:Arial;-inkscape-font-specification:Arial;text-align:center;text-anchor:middle;fill:#ffffff;stroke-width:0.23362364">SCAN ME</tspan></text>
    <path
       style="opacity:1;fill:#000000;fill-opacity:1;stroke-width:0.16117819;stroke-miterlimit:4;stroke-dasharray:none"
       d="m 1.5745806,209.68956 c -0.87123499,0 -1.57303099,0.70128 -1.57303099,1.57251 v 71.41012 c 0,0.87123 0.701796,1.57251 1.57303099,1.57251 H 72.512369 c 0.871236,0 1.572514,-0.70128 1.572514,-1.57251 v -71.41012 c 0,-0.87123 -0.701278,-1.57251 -1.572514,-1.57251 z m 2.923336,2.64583 H 69.589033 c 1.002387,0 1.809192,0.80681 1.809192,1.8092 v 65.09111 c 0,1.00239 -0.806805,1.8092 -1.809192,1.8092 H 4.4979166 c -1.002386,0 -1.809192,-0.80681 -1.809192,-1.8092 v -65.09111 c 0,-1.00239 0.806806,-1.8092 1.809192,-1.8092 z"
       id="rect1403-3" />
  </g>
</svg>
