<?xml version="1.0" encoding="UTF-8" standalone="no"?>
<svg
   xmlns="http://www.w3.org/2000/svg"
   width="280"
   height="330"
   viewBox="0 0 74.083332 87.312502"
   version="1.1"
   id="svg830">
  <defs
     id="defs824" />
  <metadata id="metadata827"></metadata>
  <g
     id="layer1"
     transform="translate(0,-209.68749)">
    <path
       style="opacity:1;fill:#000000;fill-opacity:1;stroke-width:0.60917741;stroke-miterlimit:4;stroke-dasharray:none"
       d="M 5.9511719 0.0078125 C 2.6583162 0.0078125 0.005859375 2.6583162 0.005859375 5.9511719 L 0.005859375 275.84766 C 0.005859375 279.14051 2.6583162 281.79102 5.9511719 281.79102 L 274.0625 281.79102 C 277.35536 281.79102 280.00586 279.14051 280.00586 275.84766 L 280.00586 5.9511719 C 280.00586 2.6583162 277.35536 0.0078125 274.0625 0.0078125 L 5.9511719 0.0078125 z M 17 10.007812 L 263.01367 10.007812 C 266.80222 10.007812 269.85156 13.057159 269.85156 16.845703 L 269.85156 262.85938 C 269.85156 266.64792 266.80222 269.69727 263.01367 269.69727 L 17 269.69727 C 13.211456 269.69727 10.162109 266.64792 10.162109 262.85938 L 10.162109 16.845703 C 10.162109 13.057159 13.211456 10.007812 17 10.007812 z "
       transform="matrix(0.26458333,0,0,0.26458333,0,209.68749)"
       id="rect1403" />
    <text
       xml:space="preserve"
       style="font-style:normal;font-weight:normal;font-size:9.39768696px;line-height:1.25;font-family:sans-serif;text-align:center;letter-spacing:0px;word-spacing:0px;text-anchor:middle;fill:#000000;fill-opacity:1;stroke:none;stroke-width:0.2349422"
       x="51.832973"
       y="212.38727"
       id="text1483"
       transform="scale(0.7183663,1.3920475)"><tspan
         id="tspan1481"
         x="51.832973"
         y="212.38727"
         style="font-style:normal;font-variant:normal;font-weight:bold;font-stretch:normal;font-family:sans-serif;-inkscape-font-specification:'sans-serif Bold';text-align:center;text-anchor:middle;stroke-width:0.2349422">SCAN ME</tspan></text>
    <path
       style="opacity:1;fill:#000000;fill-opacity:1;stroke-width:0.82202059;stroke-miterlimit:4;stroke-dasharray:none"
       d="M 9.6972656 287.2793 C 6.800632 287.2793 4.46875 289.76352 4.46875 292.84766 L 4.46875 300.51367 L 7.2089844 300.51367 L 7.2089844 294.70312 C 7.2089844 292.34671 8.9919147 290.44926 11.205078 290.44922 L 13.197266 290.44922 L 13.197266 287.2793 L 9.6972656 287.2793 z M 27.542969 287.2793 L 27.542969 287.78516 C 27.542969 287.50534 27.769016 287.2793 28.048828 287.2793 L 27.542969 287.2793 z M 253.46484 287.2793 C 253.74466 287.2793 253.9707 287.50534 253.9707 287.78516 L 253.9707 287.2793 L 253.46484 287.2793 z M 268.31445 287.2793 L 268.31445 290.44922 L 269.88867 290.44922 C 272.10183 290.44922 273.88477 292.34671 273.88477 294.70312 L 273.88477 300.51367 L 277.04297 300.51367 L 277.04297 292.84766 C 277.04297 289.76352 274.70913 287.2793 271.8125 287.2793 L 268.31445 287.2793 z M 4.46875 313.73438 L 4.46875 321.40234 C 4.46875 324.48648 6.800632 326.96875 9.6972656 326.96875 L 13.197266 326.96875 L 13.197266 323.72656 L 11.205078 323.72656 C 8.9919147 323.72656 7.2089844 321.82904 7.2089844 319.47266 L 7.2089844 313.73438 L 4.46875 313.73438 z M 273.88477 313.73438 L 273.88477 319.47266 C 273.88477 321.82904 272.10183 323.72656 269.88867 323.72656 L 268.31445 323.72656 L 268.31445 326.96875 L 271.8125 326.96875 C 274.70913 326.96875 277.04297 324.48648 277.04297 321.40234 L 277.04297 313.73438 L 273.88477 313.73438 z M 27.542969 326.46289 L 27.542969 326.96875 L 28.048828 326.96875 C 27.769016 326.96875 27.542969 326.7427 27.542969 326.46289 z M 253.9707 326.46289 C 253.9707 326.7427 253.74466 326.96875 253.46484 326.96875 L 253.9707 326.96875 L 253.9707 326.46289 z "
       transform="matrix(0.26458333,0,0,0.26458333,0,209.68749)"
       id="rect1487" />
  </g>
</svg>
