<?xml version="1.0" encoding="UTF-8" standalone="no"?>
<svg
   xmlns="http://www.w3.org/2000/svg"
   width="280"
   height="330"
   viewBox="0 0 74.083332 87.312502"
   version="1.1"
   id="svg830">
  <defs
     id="defs824">
    <marker
       orient="auto"
       refY="0.0"
       refX="0.0"
       id="Tail"
       style="overflow:visible">
      <g
         id="g922"
         transform="scale(-1.2)"
         style="stroke:#000000;stroke-opacity:1;fill:#000000;fill-opacity:1">
        <path
           id="path910"
           d="M -3.8048674,-3.9585227 L 0.54352094,0"
           style="fill:#000000;fill-rule:evenodd;stroke:#000000;stroke-width:0.8;stroke-linecap:round;stroke-opacity:1;fill-opacity:1" />
        <path
           id="path912"
           d="M -1.2866832,-3.9585227 L 3.0617053,0"
           style="fill:#000000;fill-rule:evenodd;stroke:#000000;stroke-width:0.8;stroke-linecap:round;stroke-opacity:1;fill-opacity:1" />
        <path
           id="path914"
           d="M 1.3053582,-3.9585227 L 5.6537466,0"
           style="fill:#000000;fill-rule:evenodd;stroke:#000000;stroke-width:0.8;stroke-linecap:round;stroke-opacity:1;fill-opacity:1" />
        <path
           id="path916"
           d="M -3.8048674,4.1775838 L 0.54352094,0.21974226"
           style="fill:#000000;fill-rule:evenodd;stroke:#000000;stroke-width:0.8;stroke-linecap:round;stroke-opacity:1;fill-opacity:1" />
        <path
           id="path918"
           d="M -1.2866832,4.1775838 L 3.0617053,0.21974226"
           style="fill:#000000;fill-rule:evenodd;stroke:#000000;stroke-width:0.8;stroke-linecap:round;stroke-opacity:1;fill-opacity:1" />
        <path
           id="path920"
           d="M 1.3053582,4.1775838 L 5.6537466,0.21974226"
           style="fill:#000000;fill-rule:evenodd;stroke:#000000;stroke-width:0.8;stroke-linecap:round;stroke-opacity:1;fill-opacity:1" />
      </g>
    </marker>
    <marker
       orient="auto"
       refY="0.0"
       refX="0.0"
       id="marker1152"
       style="overflow:visible">
      <path
         id="path1150"
         d="M 0.0,0.0 L 5.0,-5.0 L -12.5,0.0 L 5.0,5.0 L 0.0,0.0 z "
         style="fill-rule:evenodd;stroke:#000000;stroke-width:1pt;stroke-opacity:1;fill:#000000;fill-opacity:1"
         transform="scale(0.8) translate(12.5,0)" />
    </marker>
    <marker
       orient="auto"
       refY="0.0"
       refX="0.0"
       id="Arrow1Lstart"
       style="overflow:visible">
      <path
         id="path874"
         d="M 0.0,0.0 L 5.0,-5.0 L -12.5,0.0 L 5.0,5.0 L 0.0,0.0 z "
         style="fill-rule:evenodd;stroke:#000000;stroke-width:1pt;stroke-opacity:1;fill:#000000;fill-opacity:1"
         transform="scale(0.8) translate(12.5,0)" />
    </marker>
    <marker
       orient="auto"
       refY="0"
       refX="0"
       id="marker1152-0"
       style="overflow:visible">
      <path
         id="path1150-8"
         d="M 0,0 5,-5 -12.5,0 5,5 Z"
         style="fill:#000000;fill-opacity:1;fill-rule:evenodd;stroke:#000000;stroke-width:1.00000003pt;stroke-opacity:1"
         transform="matrix(0.8,0,0,0.8,10,0)" />
    </marker>
  </defs>
  <metadata id="metadata827">
  </metadata>
  <g
     id="layer1"
     transform="translate(0,-209.68749)">
      <path
         id="path2105"
         d="m 4.1176303,278.35818 c 0.1726349,0.0293 0.3493432,0.0565 0.5229657,0.0853 l -0.5896282,-0.002 c 17.9315402,5.45444 42.7311712,6.10575 64.8368672,0.20055 l -0.618566,-0.002 c 0.205639,-0.0275 0.413871,-0.0536 0.618566,-0.0817 -21.927978,2.97453 -43.554557,3.23646 -64.7702047,-0.19999 z"
         style="fill:#333333;stroke:#000000;stroke-width:0.4872351;stroke-linecap:butt;stroke-linejoin:miter;stroke-miterlimit:4;stroke-dasharray:none;stroke-opacity:1" />
    <path
       style="fill:#1a1a1a;stroke:#000000;stroke-width:0.36818326;stroke-linecap:butt;stroke-linejoin:miter;stroke-miterlimit:4;stroke-dasharray:none;stroke-opacity:1"
       d="m 37.347361,288.8369 c 3.733189,-1.1552 4.456268,-1.95652 7.989731,-3.98052 1.809745,-0.60157 3.005066,-0.61422 4.27186,-0.26563 0.884039,0.74934 0.44795,1.46575 -0.0019,1.83166 -1.701317,0.25848 -1.729453,-0.33057 -4.243528,1.07471 l -4.296432,3.75816 c -3.04732,1.37043 -4.651265,0.81636 -6.902794,1.12573 -2.468659,0.71814 -5.000922,1.35678 -6.307675,3.52729 -3.240785,-0.81286 -3.249432,-2.34397 -4.840717,-3.52339 1.652964,-0.15641 3.159774,-0.71475 4.414358,-1.96671 l 2.44869,-3.14256 c 0.73561,-0.75302 1.532375,-1.51216 2.961928,-2.33458 1.590816,-0.48637 3.068469,-0.71752 4.831906,-0.23588 0.675444,0.21628 1.138543,0.80131 0.903152,1.57809 -2.879468,-0.30336 -4.982406,0.48491 -4.576776,1.45005 0.263112,0.85548 2.607045,1.4869 3.348197,1.10358 z"
       id="path2113"/>
    <path
       style="fill:#333333;stroke:#000000;stroke-width:0.4872351;stroke-linecap:butt;stroke-linejoin:miter;stroke-miterlimit:4;stroke-dasharray:none;stroke-opacity:1"
       d="m 68.707089,216.09152 c -0.17263,-0.0293 -0.34934,-0.0565 -0.52296,-0.0853 l 0.58963,0.002 c -17.93155,-5.45444 -42.73118,-6.10575 -64.8368699,-0.20055 l 0.61856,0.002 c -0.20564,0.0275 -0.41387,0.0536 -0.61856,0.0817 21.9279799,-2.97453 43.5545599,-3.23646 64.7701999,0.19999 z"
       id="path2105-3"
       />
  </g>
</svg>
