<?xml version="1.0" encoding="UTF-8" standalone="no"?>
<svg
   xmlns="http://www.w3.org/2000/svg"
   xmlns:xlink="http://www.w3.org/1999/xlink"
   width="280"
   height="330"
   viewBox="0 0 74.083332 87.312502"
   version="1.1"
   id="svg830">
  <defs
     id="defs824">
    <linearGradient
       id="linearGradient66253">
      <stop
         style="stop-color:#000000;stop-opacity:1;"
         offset="0"
         id="stop66249" />
      <stop
         style="stop-color:#000000;stop-opacity:0;"
         offset="1"
         id="stop66251" />
    </linearGradient>
    <marker
       orient="auto"
       refY="0.0"
       refX="0.0"
       id="Tail"
       style="overflow:visible">
      <g
         id="g922"
         transform="scale(-1.2)"
         style="stroke:#000000;stroke-opacity:1;fill:#000000;fill-opacity:1">
        <path
           id="path910"
           d="M -3.8048674,-3.9585227 L 0.54352094,0"
           style="fill:#000000;fill-rule:evenodd;stroke:#000000;stroke-width:0.8;stroke-linecap:round;stroke-opacity:1;fill-opacity:1" />
        <path
           id="path912"
           d="M -1.2866832,-3.9585227 L 3.0617053,0"
           style="fill:#000000;fill-rule:evenodd;stroke:#000000;stroke-width:0.8;stroke-linecap:round;stroke-opacity:1;fill-opacity:1" />
        <path
           id="path914"
           d="M 1.3053582,-3.9585227 L 5.6537466,0"
           style="fill:#000000;fill-rule:evenodd;stroke:#000000;stroke-width:0.8;stroke-linecap:round;stroke-opacity:1;fill-opacity:1" />
        <path
           id="path916"
           d="M -3.8048674,4.1775838 L 0.54352094,0.21974226"
           style="fill:#000000;fill-rule:evenodd;stroke:#000000;stroke-width:0.8;stroke-linecap:round;stroke-opacity:1;fill-opacity:1" />
        <path
           id="path918"
           d="M -1.2866832,4.1775838 L 3.0617053,0.21974226"
           style="fill:#000000;fill-rule:evenodd;stroke:#000000;stroke-width:0.8;stroke-linecap:round;stroke-opacity:1;fill-opacity:1" />
        <path
           id="path920"
           d="M 1.3053582,4.1775838 L 5.6537466,0.21974226"
           style="fill:#000000;fill-rule:evenodd;stroke:#000000;stroke-width:0.8;stroke-linecap:round;stroke-opacity:1;fill-opacity:1" />
      </g>
    </marker>
    <marker
       orient="auto"
       refY="0.0"
       refX="0.0"
       id="marker1152"
       style="overflow:visible"
       >
      <path
         id="path1150"
         d="M 0.0,0.0 L 5.0,-5.0 L -12.5,0.0 L 5.0,5.0 L 0.0,0.0 z "
         style="fill-rule:evenodd;stroke:#000000;stroke-width:1pt;stroke-opacity:1;fill:#000000;fill-opacity:1"
         transform="scale(0.8) translate(12.5,0)" />
    </marker>
    <marker
       orient="auto"
       refY="0.0"
       refX="0.0"
       id="Arrow1Lstart"
       style="overflow:visible"
       >
      <path
         id="path874"
         d="M 0.0,0.0 L 5.0,-5.0 L -12.5,0.0 L 5.0,5.0 L 0.0,0.0 z "
         style="fill-rule:evenodd;stroke:#000000;stroke-width:1pt;stroke-opacity:1;fill:#000000;fill-opacity:1"
         transform="scale(0.8) translate(12.5,0)" />
    </marker>
    <marker
       orient="auto"
       refY="0"
       refX="0"
       id="marker1152-0"
       style="overflow:visible">
      <path
         id="path1150-8"
         d="M 0,0 5,-5 -12.5,0 5,5 Z"
         style="fill:#000000;fill-opacity:1;fill-rule:evenodd;stroke:#000000;stroke-width:1.00000003pt;stroke-opacity:1"
         transform="matrix(0.8,0,0,0.8,10,0)" />
    </marker>
    <linearGradient
       xlink:href="#linearGradient66253"
       id="linearGradient66255"
       x1="4.630208"
       y1="217.05803"
       x2="4.7247024"
       y2="297.28348"
       gradientUnits="userSpaceOnUse" />
    <linearGradient
       gradientTransform="matrix(0.9987456,0.04188301,-0.05007217,0.83540378,14.746403,48.066916)"
       xlink:href="#linearGradient66253"
       id="linearGradient66255-0"
       x1="4.630208"
       y1="217.05803"
       x2="4.7247024"
       y2="297.28348"
       gradientUnits="userSpaceOnUse" />
  </defs>
  <metadata
     id="metadata827">
  </metadata>
  <g
     id="layer1"
     transform="translate(0,-209.68749)">
    <path
       style="opacity:1;fill:#000000;fill-opacity:1;stroke-width:0.13914357;stroke-miterlimit:4;stroke-dasharray:none"
       d="m 13.48231,232.29508 c -0.946844,0.008 -1.892873,0.0516 -2.839293,0.0782 -0.351992,0.27155 -0.261351,0.76386 -0.25978,1.15157 -0.01593,1.69161 0.134653,3.38241 0.05251,5.07379 0.05031,0.34812 0.45128,0.47693 0.757826,0.46033 0.378229,0.0287 0.753299,0.0885 1.131713,0.11529 0.310073,-0.0595 0.403915,-0.436 0.354716,-0.7068 -0.02485,-1.17864 -0.04584,-2.35736 -0.06297,-3.53614 0.118148,-0.33692 0.524181,-0.47191 0.85163,-0.41086 0.424067,-0.001 0.860516,-0.0592 1.272462,0.0714 0.607972,-0.0126 1.222222,-0.17303 1.826047,-0.0331 0.285882,0.0295 0.551095,-0.241 0.502667,-0.52711 0.01845,-0.42528 -0.06595,-0.8507 -0.01572,-1.27533 -0.0281,-0.29974 -0.353893,-0.47399 -0.632078,-0.43466 -0.979844,-0.0139 -1.959758,-0.0314 -2.939734,-0.0266 z m 52.288978,2.27207 c 1.45769,0 2.915379,0 4.373069,0 0.109049,1.34184 0.08781,2.68913 0.100747,4.03409 -0.150546,0.24728 0.129765,0.61079 0.407186,0.51423 0.521937,-0.003 1.04401,-0.01 1.565785,0.007 0.28144,-0.18496 0.18792,-0.56449 0.188376,-0.84691 -0.001,-1.9226 -0.0021,-3.84519 -0.0031,-5.76779 -1.084344,-0.18989 -2.187932,-0.0515 -3.281004,-0.1 -1.117004,-0.002 -2.234009,-0.004 -3.351011,-0.006 0,0.72168 0,1.44335 0,2.16503 z m -51.853455,-0.23141 c 0.126946,0.0796 -0.07649,-0.006 0,0 z m 1.336478,0.0425 c 0.108591,0.088 -0.06789,-0.009 0,0 z m -2.55804,0.0971 c -0.02675,0.0748 -0.03774,-0.16231 0,0 z m 0.428177,0 c -0.04106,0.0204 -0.102027,-0.10973 0,0 z m 3.370841,0.0252 c -0.01454,0.0935 -0.06407,-0.1452 0,0 z m -1.329132,5.3e-4 c 0.06598,0.0652 -0.07174,-0.0211 0,0 z m -1.581001,0.0761 c -0.125143,0.0633 0.04242,0.0259 0,0 z m 0.60396,0.0346 c 0.05049,0.0193 0.08134,-0.0721 0,0 z m 1.809782,0.0273 -0.04762,-0.012 -1.35e-4,-4e-5 0.04762,0.012 z m -2.333458,-5.2e-4 0.03568,-0.008 z m -0.08028,0.0498 c -0.0036,0.0685 0.09301,-0.13243 0,0 z m 1.253047,0.031 c 0.01995,0.0637 0.06945,-0.14617 0,0 z m -0.968645,-0.0304 c -0.0066,0.0585 0.02987,-0.0451 0,0 z m -1.231007,0.0215 c -0.01708,0.0578 -0.0349,-0.0904 0,0 z m 1.614057,5.2e-4 -0.0042,-0.011 z m -0.784465,0.001 c -0.08836,0.0839 0.07247,-0.0192 0,0 z m 0.209365,0.0142 c -0.104955,0.0705 0.07327,-0.0165 0,0 z m 0.480125,0.0845 c 0.04677,0.0386 -0.02042,-0.0952 0,0 z m -0.736191,0.0656 c 0.0204,0.0685 0.05984,-0.15395 0,0 z m -0.775545,4.18259 c -0.17633,0.13082 0.07175,8.7e-4 0,0 z m 59.716998,48.62528 c 0.04764,0.008 -0.02942,-0.0565 0,0 z m -0.02728,0.01 c 9.13e-4,0.0593 0.04293,-0.0239 0,0 z m -1.863828,0.0383 c -0.256476,0.19177 -0.20664,0.56117 -0.182611,0.84081 0.118307,0.87834 0.08982,1.76885 0.0677,2.65251 -1.45e-4,0.28269 -0.05234,0.56532 -0.06172,0.83689 0.09185,0.20087 0.02223,0.40745 -0.155521,0.16564 0.0363,0.0697 -0.126268,-0.0634 -0.214571,0.0861 -0.17799,0.2342 -0.303564,-0.29635 -0.486462,-0.0142 -0.02251,0.20675 -0.331965,-0.12024 -0.25397,0.13223 -0.237509,-0.0392 -0.524115,0.0362 -0.714638,-0.13866 -0.173656,-0.072 -0.349556,0.10522 -0.460222,-0.087 -0.187896,0.0318 -0.282676,0.27917 -0.489045,0.19205 -0.150522,-0.2096 -0.402444,0.2177 -0.462285,-0.0792 -0.189878,-0.27326 -0.463517,0.27087 -0.518431,0.0693 -0.202803,-0.0477 -0.438673,-0.16223 -0.644805,0.0289 -0.215046,0.12749 -0.158877,0.40911 -0.113947,0.61331 0.02668,0.39367 -0.06685,0.79392 -0.0068,1.18693 0.06853,0.29884 0.384143,0.35896 0.640166,0.29752 0.402691,0.002 0.822053,0.0749 1.206344,-0.0845 0.309319,-0.0471 0.613235,0.0765 0.924322,0.0557 0.470001,0.003 0.942923,-0.0568 1.409422,0.0275 0.675569,0.0536 1.356673,-0.0334 2.029881,0.0585 0.283227,0.0399 0.391198,-0.23714 0.399736,-0.4709 0.133108,-0.84053 -0.16835,-1.69901 0.05419,-2.5329 0.07718,-0.21083 -0.01424,-0.4128 -0.08012,-0.60869 -0.09637,-0.46984 0.171679,-0.93792 0.04702,-1.40652 -0.02917,-0.36208 -0.01777,-0.72675 -0.06717,-1.08723 0.0712,-0.1963 0.165898,-0.51734 -0.07871,-0.63072 -0.303704,-0.0407 -0.620961,0.0261 -0.923518,-0.0519 -0.272526,-0.0153 -0.542038,-0.0618 -0.814375,-0.0792 l -0.04289,0.0239 z m -0.334775,4.4948 c 0.0059,0.006 0.0015,-0.0118 0,0 z m -58.076708,-4.4628 c -0.504849,0.0551 -1.010364,0.10528 -1.513311,0.17631 -0.309785,0.18197 -0.233049,0.59178 -0.243135,0.89282 -0.05456,0.9147 -0.06307,1.83616 0.0641,2.74536 0.05121,0.82623 -0.01037,1.65497 0.04208,2.48118 0.115242,0.38969 0.578033,0.4921 0.934538,0.48485 0.647776,0.0309 1.300314,0.0771 1.943604,-0.033 0.547245,-0.0612 1.104393,-0.0468 1.642447,0.0736 0.549498,0.0515 1.108776,-0.28941 1.644139,-0.0521 0.321913,0.0711 0.650569,-0.29473 0.501834,-0.60453 -0.10591,-0.368 -0.06211,-0.75712 0.01425,-1.1255 0.01764,-0.27384 -0.257923,-0.48473 -0.517905,-0.46123 -1.104256,-0.0876 -2.213616,-0.0362 -3.319942,-0.0299 -0.226248,0.16354 -0.64838,-0.0452 -0.556735,-0.34265 0.01456,-0.28825 -0.28128,-0.55042 -0.138003,-0.83851 0.147483,-0.27 0.11472,-0.59831 -0.01844,-0.86511 -0.142541,-0.60091 -0.0026,-1.2185 -0.004,-1.82668 0.03169,-0.25894 -0.04231,-0.59226 -0.33328,-0.66331 -0.04687,-0.0128 -0.09406,-0.0142 -0.142201,-0.0115 z m 58.243046,0.063 c -0.08247,-0.0287 -0.0415,-0.0145 0,0 z m -0.07609,0.0257 c -0.03228,0.13544 0.06279,-0.0806 0,0 z m -57.67739,2.13302 c -0.0065,0.0799 0.101508,-0.13252 0,0 z m 0.101273,0.0341 c 0.08951,0.0845 -0.0022,-0.0842 0,0 z m -0.178932,0.24977 c -0.0063,0.0724 -0.07847,-0.13686 0,0 z m 0.06769,0.30487 c 0.02972,0.0507 -0.04996,-0.0243 0,0 z m -0.01312,0.0425 c 0.104488,0.0969 -0.06825,-0.006 0,0 z m -0.06349,0.12069 c -0.0124,0.18611 -0.02789,-0.0788 0,0 z m 60.025016,0.0483 0.04513,-0.0121 z m -59.979365,0.0651 c 0.112902,0.0322 -0.01062,0.0456 -0.01,0 z m 0.02046,0.45966 c -0.009,0.0364 0.02559,-0.0259 0,0 z m 0.216187,0.0766 c -0.03045,0.0732 0.13499,-0.0908 0,0 z m -0.05877,-0.0152 c -0.04776,0.12505 0.06342,-0.0113 0,0 z m -0.0551,0.0645 c -0.120577,0.0806 0.07906,-0.009 0,0 z m 0.09288,0.0777 c 0.05261,0.0343 -0.06596,-0.10924 0,0 z m -0.03043,0.33373 c 0.0432,-0.006 -0.02514,-0.0769 0,0 z m 56.698775,0.16791 c 0.03775,-0.0124 -0.07634,-0.0337 0,0 z m -0.08028,-0.002 c -0.02857,0.084 0.20783,-0.01 0.01137,-0.002 z m 0.793385,0.0672 c -0.0376,0.0629 0.09552,-0.0825 0,0 z m -0.955526,0.0457 c 0.06949,0.18047 0.0049,-0.13577 0,0 z m 0.909351,-0.0304 c -0.07675,0.051 0.05645,0.009 0,0 z m -0.766626,0.0336 c -0.03546,0.16639 0.130126,-0.0775 0,0 z m -2.996713,0.003 c 0.06692,0.15839 0.233847,-0.0251 0,0 z m -49.356805,0.0136 c -0.06357,0.11931 0.06639,1.5e-4 0,0 z m 53.273888,0.003 c -0.08107,0.16964 0.06021,-0.0123 0,0 z m -54.471314,0.008 c -0.08099,0.0822 0.07166,-0.0192 0,0 z m 52.563933,0.0383 c 0.08637,0.0443 -0.104199,-0.0879 0,0 z m 1.66286,-0.002 c 0.02411,0.0613 0.05129,-0.041 0,0 z m -1.219466,0.004 c -0.07134,0.084 0.08365,-0.039 0,0 z m 0.651186,0.0404 c 0.06155,0.11521 0.011,-0.15206 0,0 z m 0.660105,-0.0205 c 0.03106,-4.8e-4 0.01612,-0.0304 0,0 z m -54.974001,0.0262 c 0.02879,0.0889 0.02921,-0.11232 0,0 z m 50.897402,-0.009 c -0.175626,0.0396 0.0526,0.0715 0.03726,-0.008 z m 2.886522,0.022 c 0.0016,0.19408 0.213579,-0.11624 0,0 z m -53.115422,-0.006 c -0.01029,0.0623 0.03773,-0.0351 0,0 z m -0.767675,0.003 c -0.04172,0.0789 0.05333,-0.0421 0,0 z m 54.350627,0.0173 c 0.0318,0.10412 0.09963,-0.0718 0,0 z m -0.335301,0.006 c 0.03739,0.022 -0.0025,-0.0558 0,0 z m 1.097204,0.006 c -0.02216,0.03 -0.0072,-0.0432 0,0 z m -1.341201,0.003 c -0.02381,0.0625 0.04609,-0.0152 0,0 z m -1.053125,0.009 -0.0021,-0.001 z m 4.672688,0.032 c -0.0048,0.0634 0.04511,-0.0231 0,0 z m -6.147695,0.0582 c -0.04186,0.13416 -0.107456,-0.14601 0,0 z m 2.154526,-0.022 c 0.132895,0.0426 -0.08526,-0.004 0,0 z m -0.01679,0.0577 c -0.04153,0.0449 -0.07854,-0.0755 0,0 z m -0.001,0.0519 c -0.05376,-0.005 -0.04088,-0.0528 0,0 z m -1.922074,5.2e-4 c -0.01138,0.14798 -0.04674,-0.0407 0,0 z m 0.793912,0.0168 c 0.157633,0.0713 -0.104122,0.0655 0,0 z m 2.672956,0.0304 c 0.0016,0.061 -0.08948,-0.1078 0,0 z m 2.466214,0.0378 c -0.01475,0.13952 0.04072,-0.0298 0,0 z m -3.255926,0.0215 c 0.06219,0.18023 -0.06758,-0.0496 0,0 z m -52.036061,0.12174 c 0.03048,0.0506 0.02935,-0.0304 0,0 z m 55.189139,0.19992 c -0.02806,0.0331 0.03435,-0.15182 0,0 z m 0.233503,0.5221 c -0.01409,0.14496 0.07865,-0.0224 0,0 z m -55.359675,0.4434 c 0.02839,0.0163 -9.57e-4,-0.0296 0,0 z m 0.01364,0.0609 c -0.120021,0.0475 0.05782,0.006 0,0 z m -0.04198,0.25869 c 0.01588,0.0772 0.04937,-0.14148 0,0 z m -1.091431,0.21094 c -0.03403,0.0428 0.01445,-0.0743 0,0 z m 0.125935,0.11545 c 0.08272,-0.0282 0.04241,-0.0145 0,0 z m -2.859233,0.0163 c 0.02117,0.0217 -0.0036,-0.0299 0,0 z m 3.262747,0.0651 c 0.05647,-0.002 -0.09688,-0.12105 0,0 z m -2.091034,-0.0504 -0.0084,-0.002 z m -2.961555,0.0472 0.01417,-0.007 z m 1.675452,0.0226 c -0.09259,0.10532 0.05861,0.003 0,0 z"
       id="rect858"
       />
    <rect
           id="rect66142"
           width="65"
           height="60"
           x="11.428572"
           y="-11.428572" />    <text
       xml:space="preserve"
       style="font-style:normal;font-variant:normal;font-weight:bold;font-stretch:normal;font-size:10.90081215px;line-height:1.25;font-family:sans-serif;-inkscape-font-specification:'sans-serif Bold';text-align:end;letter-spacing:0px;word-spacing:0px;text-anchor:end;fill:#000000;fill-opacity:1;stroke:none;stroke-width:0.2725203"
       x="80.730156"
       y="199.5233"
       id="text66148"
       transform="scale(0.88391523,1.1313302)"><tspan
         id="tspan66146"
         x="80.730156"
         y="199.5233"
         style="font-style:normal;font-variant:normal;font-weight:normal;font-stretch:normal;font-family:sans-serif;-inkscape-font-specification:sans-serif;stroke-width:0.2725203">SCAN ME</tspan></text>
    <path
       style="opacity:1;fill:url(#linearGradient66255);fill-opacity:1;stroke-width:0.48169938;stroke-linecap:round;stroke-linejoin:bevel;stroke-miterlimit:4;stroke-dasharray:none;paint-order:fill markers stroke"
       d="m 4.4153566,212.68065 c -0.2107567,0.0583 -0.4466192,2.6e-4 -0.6258991,0.35352 -0.2129777,-0.0513 -0.4968244,0.22821 -0.5125472,0.87089 -0.1213629,0.55778 0.016015,1.16768 0.059141,1.72888 -0.093355,0.53742 -0.111031,1.19522 0,1.72454 -0.00845,0.68066 -0.260051,1.24175 -0.1856342,1.94444 0.010701,0.69851 0.1285271,1.33713 0.2217753,1.9789 -0.1294082,0.73993 -0.3747045,1.54169 -0.2330181,2.39346 0.1030247,0.57267 0.034647,1.17148 0.024464,1.7646 -0.024885,0.81415 -0.09345,1.65414 0.016211,2.44717 0.090949,0.7072 0.08177,1.44954 0.077025,2.18386 -0.00357,1.99316 -0.05432,3.98839 0.00179,5.97959 -0.00107,1.37446 -0.062042,2.74364 -0.071968,4.11782 -0.026052,0.77763 0.00345,1.55637 0.085504,2.30566 0.059451,0.6898 0.022804,1.39529 -0.036783,2.07255 -0.099134,1.99947 -0.077467,4.02395 -0.053991,6.03403 0.01737,0.90434 0.087604,1.81139 0.021966,2.71188 -0.062598,1.67299 0.023935,3.34625 0.05335,5.01559 0.012993,1.87474 0.00494,3.75123 0.0255,5.62486 -0.033478,1.16338 -0.080751,2.32976 -0.037467,3.49578 0.017704,3.70045 -0.00213,7.40297 -0.068073,11.09948 -0.016153,0.84777 0.1228027,1.65848 0.075614,2.50651 -0.074478,1.43023 -0.1398786,2.92437 0.03802,4.32363 0.1473327,0.88087 -0.06436,1.78651 -0.1234898,2.65489 -0.087398,1.12874 0.2149215,2.14953 0.1869375,3.27551 -0.037525,0.8283 -0.1991426,1.7165 -0.042373,2.52759 0.10635,0.57013 0.3866314,0.43513 0.5844422,0.43113 0.2174038,-1.6e-4 0.4169821,0.31463 0.6386437,0.25777 0.223027,0.0104 0.4442182,-0.17098 0.6653544,-0.0235 0.1998254,0.082 0.4950956,0.18246 0.5960814,-0.40858 0.2213447,-1.02379 0.1335353,-2.2492 0.1501926,-3.37183 -0.00974,-2.08811 -0.081527,-4.19663 0.059444,-6.26648 -0.00521,-2.58399 -0.0094,-5.16879 -0.048279,-7.75081 0.021513,-2.10511 0.096521,-4.21144 0.031285,-6.31674 -0.053721,-2.4248 -0.058463,-4.85337 -0.04794,-7.2813 0.012204,-3.89275 -0.00429,-7.78718 0.00527,-11.6789 0.040325,-1.02108 -0.086355,-2.05976 0.022044,-3.07 0.028589,-0.55458 0.02841,-1.12069 0.063912,-1.67415 -0.06618,-0.56108 -0.1055664,-1.14987 -0.1002096,-1.74612 -0.03382,-0.58916 0.057426,-1.11605 0.049284,-1.69003 -0.020326,-0.55503 0.00267,-1.06881 0.010492,-1.61091 0.035722,-0.60333 -0.077836,-1.20358 -0.058132,-1.81664 -0.038602,-0.53719 0.019716,-1.08785 -0.011833,-1.59291 -0.068493,-0.82619 -0.061544,-1.67998 -0.096868,-2.51948 -0.022714,-1.1336 0.068715,-2.25282 0.1402982,-3.36442 0.062569,-0.82668 -0.053444,-1.65287 -0.061167,-2.48245 -0.023568,-0.78748 -0.00199,-1.57496 0.032474,-2.35615 0.017518,-1.29325 -0.1131259,-2.6317 0.057879,-3.88671 0.029096,-0.60689 -0.2246945,-1.16693 -0.1062069,-1.75843 0.1196562,-0.59023 -0.094871,-1.26524 0.036032,-1.85739 0.1137236,-0.93785 -0.04327,-1.90081 -0.00211,-2.85554 0.015883,-1.16635 0.1100515,-2.35656 0.012505,-3.51075 -0.068926,-0.59489 -0.3275496,-0.85072 -0.5460097,-0.7643 -0.2983915,0.009 -0.5939482,-0.10519 -0.8891421,-0.18723 -0.027927,0.006 -0.055854,0.0117 -0.083781,0.0174 z m -0.8230326,0.0474 c -0.00814,0.13693 0.030343,-0.0952 0,0 z m 1.0152378,0.0819 c 0.08457,0.0633 -0.042346,0.0573 0,0 z m -1.0891629,0.21124 c 0.072522,0.22972 -0.016243,-0.23245 0,0 z m -0.1379935,1.19426 c -0.054066,-0.10948 -0.00668,-0.28989 0,0 z m -0.047641,0.14222 c 0.021024,0.12679 -0.09274,-0.14192 0,0 z m -0.4254799,0.28455 c -0.00997,0.16075 0.078619,-0.22085 0,0 z m 0.1347079,0.0174 c -0.1034557,0.31488 0.0651,-0.0147 0,0 z m 0.4090521,0.28455 c -0.049113,0.0336 -0.053476,-0.13502 0,0 z m -0.2529881,0.1422 c 0.042499,-0.0587 -0.00279,-0.24034 0,0 z m -0.1429217,0.0519 c -0.045163,0.1566 0.061508,-0.0683 0,0 z m 0.062426,0.50011 c -0.014174,0.35662 0.031309,-0.0911 0,0 z m 0.037784,0.32321 c 0.024198,0.14205 0.062099,-0.26253 0,0 z m -0.055854,0.0302 c -0.05652,0.16105 0.066156,-0.0627 0,0 z m 0.077211,0.17673 0.00493,-0.0132 z m -0.0115,0.42253 c 0.020498,0.13267 0.028762,-0.07 0,0 z m 0.067354,0.17244 c -0.013909,0.28913 0.040137,-0.0531 0,0 z m -0.2776298,0.1466 c 0.04659,0.15552 -0.035856,-0.32185 0,0 z m 0.083781,-0.0132 c -0.2224827,0.54887 0.3061086,0.47381 0.027927,-0.009 z m -0.3844104,0.35785 c 0.060426,-0.0244 0.051883,-0.0209 0,0 z m 0.1314224,0.0302 c -0.045326,0.13868 0.1297369,-0.14088 0,0 z m 0.00986,0.40095 c 0.0074,0.19724 0.037628,-0.29924 0,0 z m -0.042712,0.0992 c 0.00872,0.13414 0.017151,-0.11514 0,0 z m 0.024642,0.0516 c 0.052845,0.0382 0.061019,-0.18099 0,0 z m 0.08871,0.0647 c -0.073507,0.22632 0.091309,-0.0591 0,0 z m 0.4632639,0.18109 c 0.099541,0.23732 -0.061845,-0.0248 0,0 z m -0.1626352,0.0777 c -0.052422,0.31093 0.050005,-0.0914 0,0 z m 0.2250608,0.19832 c 0.092529,0.18036 -0.065499,-0.007 0,0 z m -0.072282,0.0518 c 0.048623,0.26787 -0.042467,-0.0132 0,0 z m -0.065711,0.0819 c 0.070326,0.37314 -0.04813,-0.0948 0,0 z m -0.00164,0.33627 c 0.1007741,0.18459 -0.047415,0.048 0,0 z m 2.7976536,0.14222 c -0.047922,0.29627 0.048326,-0.0875 0,0 z m -2.7976536,0.54754 c -0.049554,0.005 -0.032959,-0.16488 0,0 z m 2.7746548,0.11214 c -0.051038,0.26836 0.046987,-0.0481 0,0 z m -2.9323616,0.0258 c 0.033205,0.13928 0.016122,-0.0734 0,0 z m 0.050926,0.12078 c 0.020383,0.0879 0.032722,-0.0604 0,0 z m -0.1379934,0.1337 c 0.00833,0.13751 0.055965,-0.24837 0,0 z m 0,0.44838 c -0.065285,0.33147 0.046899,-0.044 0,0 z m 0.1987763,0.38801 c 0.010184,0.17062 0.036999,-0.29323 0,0 z m -0.1051379,-0.0516 c -0.070176,0.4965 0.051807,-0.11652 0,0 z m -0.085424,0.005 c -0.1132242,0.13384 0.058096,0.0228 0,0 z m 2.9849306,0.20261 c -0.033324,0.17756 0.1235839,-0.24241 0,0 z m -2.9553606,0.0258 c 0.052431,-0.0778 0.046495,-0.069 0,0 z m 2.9898589,0.0302 c -0.1239818,0.25111 0.06315,-0.005 0,0 z m -2.817367,0.49578 c 0.00384,0.1425 0.063645,-0.2737 0,0 z m 2.7631553,1.11664 c 0.046589,0.1425 0.063638,-0.26627 0,0 z M 2.98286,222.70942 c -0.091084,0.22595 0.066768,-0.0477 0,0 z m 0.3449837,0.17676 c 0.1309097,0.51146 -0.2342248,-0.0815 0,0 z m -0.3531977,0.37079 c 0.00544,-0.18575 0.0032,-0.10902 0,0 z m -0.00986,0.11214 c -0.015442,0.0874 0.036673,-0.0436 0,0 z m 2.8600793,0.0603 c 0.013888,0.23477 -0.037624,0.0546 -0.00329,-0.0345 z m -2.9027917,0.009 c -9.588e-4,0.39132 0.029702,-0.0869 0,0 z m 3.0407852,-0.009 c 0.048877,0.0918 -0.039219,0.0292 -0.021357,-0.009 z m -3.1032107,0.0905 c -0.021486,0.37224 0.033575,-0.0863 0,0 z m 3.0769262,-0.009 c 0.1195557,0.21263 -0.076683,-0.0236 0,0 z m -2.8945777,0.48287 c 0.034549,0.0866 -0.00696,-0.19337 0,0 z m -0.057497,-0.0258 c -0.055803,0.0696 0.066703,-0.0562 0,0 z m 0,0.12063 c -0.072814,0.33981 0.063288,-0.0426 0,0 z m -0.060783,0.0905 c -0.020056,0.22802 0.083684,-0.32657 0,0 z m -0.014785,-0.0302 h -0.00329 z m 0.1659208,0.13369 c 0.069473,0.34388 -0.0077,-0.19633 0,0 z m 0.3334842,0.0819 c 0.00736,0.18573 -0.072889,0.077 0,0 z m -0.4911911,0.10346 c -0.057435,0.1821 -0.00358,0.11668 0.014785,-0.0132 z m 0.026285,0.056 c 0.052921,0.3512 0.00631,-0.18062 0,0 z m 2.9964301,0.16814 c -0.07377,0.34551 0.042991,10e-4 0,0 z m 0.037784,0.0215 c -0.011851,0.10068 0.031766,-0.0529 0,0 z m 0.021356,0.27593 c -0.048423,0.31032 0.043428,-0.0228 0,0 z m -0.054212,0.10346 c -0.053868,0.18761 0.058011,-0.0848 0,0 z m -2.5216666,0.73293 c -0.064774,-0.0104 -0.047566,-0.23914 0,0 z m 0.052569,0.0603 c 0.015044,0.1921 -0.080085,-0.22063 0,0 z m 0.1478501,0.11214 c 0.014576,0.14799 -0.1094185,-0.20879 0,0 z m -0.3154137,0.16383 c 0.1219557,0.12182 -0.040339,0.0318 0,0 z m 0.1429219,0.95713 c -0.035263,0.16403 0.00811,-0.32928 0,0 z m 0.064068,0.0819 c -0.00272,0.14205 -0.074275,-0.29586 0,0 z m -0.1462075,0.15953 c 0.03768,0.48818 -0.3209198,-0.0409 -0.047304,-0.083 0.027327,-0.0518 0.033953,0.0385 0.047304,0.083 z m 0.1002097,-0.0733 c 0.1145076,0.1224 -0.076207,-0.0244 0,0 z m -0.019713,0.49582 c -0.010408,0.18501 -0.032559,-0.26521 0,0 z m 0.050926,0.0345 c -0.045773,0.0536 0.045113,-0.19949 0,0 z m 2.5610935,0.29315 c -0.016237,-0.31958 -0.027515,-0.54158 0,0 z m -3.0407851,0.42253 c 0.094699,-0.12709 0.1022476,-0.13722 0,0 z m 0.3827677,0.73723 c 0.095763,0.33273 -0.1517175,-0.14544 0,0 z m -0.4139805,0.18108 c -0.029952,0.37389 0.038548,-0.0986 0,0 z m 0.039427,0.0302 c -0.067784,0.2446 0.052688,-0.033 0,0 z m 0.1379935,0.11214 c -0.052231,0.25703 0.060591,-0.0546 0,0 z m -0.3827676,0.069 c -0.070722,0.20155 0.06153,-0.0559 0,0 z m 0.1577068,0.0603 c -0.080282,0.13853 0.064929,-0.0404 0,0 z m 0.062426,0.0905 -0.00329,-0.005 z m -0.2102758,0.15523 c -0.020414,0.50742 0.042524,-0.0836 0,0 z m 0.2727013,0.64238 c -0.046272,0.30155 0.1115079,-0.23249 0,0 z m 2.8847211,0.0432 -0.00986,-0.0258 z m -2.7910876,0.17691 c 0.059284,-0.0498 0.048871,-0.0411 0,0 z m 2.6678741,2.32384 c -0.03841,0.0545 -0.011902,-0.13282 0,0 z m -2.7138719,2.06945 c 0.04179,0.0847 -0.029998,-0.22594 0,0 z m -0.1577069,0.64238 c -0.023103,0.28023 0.048527,-0.12988 0,0 z m 0.093638,0.4181 c -0.063777,0.16653 0.061556,-0.0513 0,0 z m 2.8370805,1.70729 c -0.017456,0.38941 -0.035982,-0.1591 0,0 z m -2.549594,2.18588 c 0.083028,0.083 0.010157,0.12944 -0.014785,-0.009 z m 0.1034951,0.73723 c 0.00765,0.14857 -0.074985,-0.21338 0,0 z m -0.1774203,0.57772 c 0.0096,0.13164 -0.035939,-0.0793 0,0 z m 0.021356,0.0863 c 0.1041817,0.18617 -0.062904,0.0132 0,0 z m -0.1429219,0.9442 c 0.013666,0.13266 0.06015,-0.30987 0,0 z m -0.1166373,0.56909 0.00493,-0.0132 z m 0.065711,0.22418 c -0.029694,0.2145 0.034817,0.0608 0.00657,-0.0345 z m 0.3761966,1.40121 c -0.032379,0.0576 -0.071704,-0.12709 0,0 z m -0.087067,0.24575 c 0.032415,0.15577 -0.095073,-0.14324 0,0 z m -0.3269132,0.27592 c -0.050528,0.12019 0.072707,-0.0815 0,0 z m 0.00986,0.81485 c -0.063635,0.32757 0.053546,-0.10508 0,0 z m 0.2891292,0.72431 c 0.00874,0.14528 -0.1002226,-0.22863 0,0 z m -0.2957003,-0.0174 c -0.1027155,0.16472 0.057815,0.0104 0,0 z m 0.1741347,0.27593 c 0.069326,0.31789 -0.050362,-0.0781 0,0 z m 0.00986,0.20264 c -0.00198,0.1998 -0.058216,-0.27667 0,0 z m 0.00657,0.53029 c 0.047177,0.22178 -0.00765,0.11696 -0.013142,-0.0258 z m -0.2234181,0.67688 c -0.029694,0.2145 0.034817,0.0608 0.00657,-0.0345 z m 2.9652172,0.1293 c 0.087539,0.18333 -0.015814,-0.29099 0,0 z m 0.05914,0.0345 0.00493,-0.0863 z m -2.9110055,1.63399 c 0.00964,0.10635 0.016086,-0.0981 0,0 z m -0.1363507,0.35354 -0.021356,-0.0777 z m 0.091996,0.24143 c 0.1116586,0.16977 -0.01167,-0.0882 0,0 z m -0.042712,0.005 c -0.081464,0.30533 0.066841,-0.0915 0,0 z m 0.2595592,0.46993 c 0.101836,0.3152 -0.068076,-0.0839 0,0 z m -0.2037048,1.39688 c -0.00124,0.15446 0.062793,-0.30215 0,0 z m -0.08871,0.3794 c 0.015153,0.14075 0.044097,-0.33355 0,0 z m 0.044355,0.4872 -0.014785,-0.009 z m -0.077211,0.96144 0.00657,-0.005 z m 0.246417,0.68982 c -0.00759,0.13045 -0.091325,-0.2407 0,0 z m 0.075568,0.0432 c 0.01992,0.15983 -0.088956,-0.20605 0,0 z m 0.2037047,0.46993 c -0.011593,0.0956 -0.064507,-0.15467 0,0 z m 2.5134528,7.62681 0.026284,-0.0345 z m -2.7976537,0.83209 c 0.058466,-0.0831 0.042218,-0.24138 0,0 z m 2.7237286,0.55617 c 0.054257,-0.0279 0.047594,-0.21088 0,0 z m -2.8370803,0.65964 c -0.019282,0.15109 0.084518,-0.23229 0,0 z m 0.1067806,1.65986 c -0.069903,0.25396 0.046741,-0.0196 0,0 z m -0.2644875,1.2115 c 0.082411,-0.17745 0.088458,-0.19047 0,0 z m 0.1232084,0.11638 -0.026285,-0.0777 z m -0.1741346,0.0388 c -0.087576,0.36932 0.0467,0.0295 0,0 z m 0.1314224,0.87952 c -0.025442,0.22818 0.035322,0.0759 0.00493,-0.0345 z m 2.9915017,-0.0215 c -0.1118385,0.26727 0.058683,-0.0389 0,0 z m -2.9274333,0.15089 c -0.083928,0.24368 0.058845,-0.0537 0,0 z m 0.3186992,0.29748 c 0.026555,0.37368 -0.06941,-0.41092 0,0 z m -0.4879055,0.25005 c 0.064594,-0.0179 0.049555,-0.17624 0,0 z m 0.027927,0.17247 c -0.09685,0.18164 0.052825,0.0312 0,0 z m 0.4731206,0.43542 c 0.1394114,0.13634 -0.055267,0.0647 0,0 z m 0.034499,0.14662 c -0.00638,0.30903 -0.026494,-0.13619 0,0 z m 0.1330652,0.16383 c -0.052433,0.0215 -0.062568,-0.16635 0,0 z m -0.3876961,0.7588 c -0.023562,0.2301 0.036463,0.0657 0.00822,-0.0345 z m 2.9241478,0.0733 c -0.05125,0.11213 0.064953,-0.0914 0,0 z m -2.705658,0.50795 c 0.053244,0.28488 -0.051274,-0.0889 0,0 z m -0.085425,0.66394 c 0.072228,0.12299 -0.078324,-0.0329 0,0 z m -0.2201325,1.03904 c -0.0067,0.16042 0.064651,-0.21429 0,0 z m -0.098567,0.14661 0.032856,-0.009 z m 0.4780489,0.66395 c 0.013042,0.17566 -0.067416,-0.22889 0,0 z m -0.1363507,0.0215 c 0.0704,0.11515 -0.085971,-0.0361 0,0 z m 0.077211,0.16814 c 0.04808,0.28394 -0.051955,-0.0881 0,0 z m 2.5709501,0.63378 c -2.014e-4,0.12004 0.031731,-0.0813 0,0 z m -2.8781499,0.48717 c 0.040808,0.0338 0.038793,-0.19144 0,0 z m 0.2102758,0.3363 c -0.026602,0.13752 -0.00677,-0.20399 0,0 z m -0.290772,0.90537 c -0.035869,0.1551 0.048261,-0.056 0,0 z m 0.3597688,1.54778 c -0.030408,0.0854 -0.04941,-0.17339 0,0 z m -0.3712682,0.54325 c -0.1056231,0.17215 0.05751,-0.0346 0,0 z m 0.067354,0.68983 c -0.00309,0.14981 0.086673,-0.2568 0,0 z m 0.4583355,0.056 c -0.069357,-0.0352 -0.05246,-0.22254 0,0 z m -0.5158328,0.31903 c 0.054393,-0.0118 0.039677,-0.18855 7.96e-5,-2.5e-4 z m 0.082139,0.82778 c 0.023951,0.22483 0.01692,-0.34776 0,0 z m 0.2398459,0.0432 c 0.1085619,0.15326 -0.060188,0.0147 0,0 z m 0.00986,0.18972 c 0.032838,0.13412 -0.102734,-0.13517 0,0 z m -0.036141,0.28023 c -0.048841,0.0625 -0.076508,-0.19046 0,0 z m -0.2940576,0.16814 c 0.029629,0.13956 0.0028,-0.36367 0,0 z m 0.2924148,0.0863 c 0.069199,0.30578 -0.05405,-0.0529 0,0 z m 2.6892303,1.87112 c -0.054472,0.1381 0.079726,-0.0805 0,0 z m -2.5923063,0.3018 c 0.1100953,0.12533 -0.070448,-0.0132 0,0 z m -0.3416982,0.82349 c -0.075162,0.13119 0.00101,0.15326 0.0115,-0.0132 z m 0.5881151,0.97434 c 0.08228,0.14978 -0.077509,-0.0273 0,0 z m -0.5076189,0.0132 0.00493,-0.005 z m -0.064069,0.0475 c 0.074484,-0.0312 0.036461,-0.0153 0,0 z m 0.075568,0.20262 c 0.052227,0.0186 0.05416,-0.21497 0,0 z m -0.156064,0.13369 c -0.079697,0.20325 0.047208,0.0527 0,0 z m 0.45505,0.55186 c 0.010661,0.13517 -0.1148242,-0.22364 0,0 z m 0.1314223,0.0388 c -0.00512,-0.07 0.083271,-0.14323 0,0 z m -0.072282,0.0647 c -0.044271,0.0104 0.048928,-0.18898 0,0 z m 0.024642,0.0647 c 0.1035103,0.16609 -0.05309,0.0273 0,0 z m -0.2020619,0.25439 c 0.060723,0.29137 -0.052839,-0.0844 0,0 z m 2.5906635,0.15089 c -0.1266893,0.24443 0.065697,0.003 0,0 z m -2.4756689,0.59497 c -0.068256,0.009 -0.058476,-0.21744 0,0 z m -0.4468361,-0.0561 c 0.090384,-0.0664 0.015629,-0.0117 0,0 z m 0.3022715,0.27161 c 0.046485,0.11828 -0.043812,-0.038 0,0 z m -0.2398458,0.1466 c -0.048275,-0.14162 -0.024804,-0.0728 0,0 z m 0.4846199,0.13795 c 0.062936,0.1709 -0.036938,0.11711 0,0 z m -0.019713,0.54755 c 0.086421,0.13135 -0.071572,-0.0251 0,0 z m -0.5897579,0.81917 c 0.029688,0.32074 0.00771,-0.49057 0,0 z m 0.2907719,0.43545 v -0.0215 z m 0.179063,0.0132 c 0.061241,0.28562 -0.053704,-0.0716 0,0 z m -0.3203421,0.15951 c -0.071503,0.13736 0.082369,-0.0795 0,0 z m 0.4961195,0.0215 c 0.1510031,0.22071 -0.078774,-0.0361 0,0 z m -0.3860532,0.23281 c 0.00882,0.17432 0.059158,-0.31761 0,0 z m -0.1396354,0.0381 c -0.05586,0.33716 0.051556,-0.14382 0,0 z m 0.082139,0.15523 c 0.03021,0.11829 0.039703,-0.33229 0,0 z m 0,0.53459 c -0.014309,0.33311 0.075391,-0.20881 0,0 z m -0.1166373,1.46588 c -0.1049917,0.15822 0.056988,0.0149 0,0 z m 0.4714777,0.54322 c -0.055683,0.0117 -0.044436,-0.21258 0,0 z m 1.3240804,0.24576 c 0.1113934,0.2868 -0.064947,-0.0346 0,0 z m -0.00657,0.17244 c -0.05886,-0.007 -0.072533,-0.21108 0,0 z m -0.343341,0.005 c 0.056506,0.19144 -0.02042,0.0787 -0.013142,-0.009 z m -0.1905624,0.0733 c 0.1794222,0.23779 -0.096171,0.0403 0,0 z m -0.4238372,0.16814 c -0.060116,0.19356 -0.00265,0.12006 0.014785,-0.0174 z m -0.7359653,0.26299 c 0.047548,-0.009 0.045912,-0.0974 0,0 z m 0.2086331,0.12078 0.00329,-0.0732 z m 0.6291846,0.0819 h -0.00164 z m -0.2792726,0.0948 c -0.052233,0.20523 0.019966,0.063 0.0115,-0.0171 z m 0.1724919,0.10786 c -0.088688,0.27953 0.059442,-0.0524 0,0 z m -0.1987764,0.1509 -0.0115,-0.0516 z m 0.2382031,0.17245 c -0.020218,0.21303 0.02789,0.12459 0.00329,-0.0258 z"
       id="rect66191" />
    <path
       style="opacity:1;fill:url(#linearGradient66255-0);fill-opacity:1;stroke-width:0.44055167;stroke-linecap:round;stroke-linejoin:bevel;stroke-miterlimit:4;stroke-dasharray:none;paint-order:fill markers stroke"
       d="m 8.5068388,225.92605 c -0.2134115,0.0399 -0.4460719,-0.0184 -0.6428154,0.26912 -0.2101419,-0.0518 -0.5076282,0.16984 -0.5555117,0.70608 -0.1491399,0.46089 -0.042473,0.97616 -0.027502,1.4468 -0.1201477,0.44504 -0.170739,0.99383 -0.086351,1.44068 -0.042521,0.56827 -0.3219019,1.02648 -0.2827636,1.61662 -0.024288,0.58398 0.061413,1.12242 0.1224092,1.66247 -0.1662957,0.61272 -0.4514302,1.27224 -0.3525715,1.98975 0.074221,0.48272 -0.024055,0.98011 -0.063924,1.47517 -0.06562,0.6791 -0.1761592,1.37796 -0.1063445,2.04505 0.055424,0.59461 0.00909,1.21438 -0.032422,1.82764 -0.1033674,1.66494 -0.2539592,3.32964 -0.2976233,4.99545 -0.069891,1.14818 -0.1993442,2.28945 -0.2780659,3.43702 -0.064957,0.64855 -0.074485,1.30035 -0.030053,1.92974 0.024837,0.57875 -0.04709,1.16659 -0.1405139,1.72987 -0.1991274,1.66621 -0.2788577,3.35838 -0.3560602,5.03859 -0.027934,0.75622 -0.00321,1.51692 -0.1138513,2.26644 -0.1462897,1.395 -0.143649,2.79647 -0.1978584,4.19227 -0.080896,1.56672 -0.1828984,3.134 -0.2561809,4.7001 -0.091689,0.9705 -0.1973059,1.94291 -0.2124613,2.91882 -0.1676078,3.09211 -0.3728101,6.18439 -0.6237627,9.2697 -0.058582,0.70756 0.039605,1.39065 -0.049987,2.09711 -0.1459993,1.19171 -0.2861327,2.43718 -0.1785212,3.61357 0.1030408,0.74206 -0.1537337,1.48977 -0.256271,2.21274 -0.1438069,0.93928 0.1070202,1.80472 0.022691,2.7442 -0.078953,0.69039 -0.2848417,1.42563 -0.1688818,2.10979 0.077669,0.48074 0.3643585,0.3797 0.5621215,0.38464 0.2171391,0.009 0.4007048,0.2803 0.6249355,0.24209 0.2222264,0.0181 0.4522223,-0.12424 0.6656964,0.009 0.1954688,0.0769 0.4853384,0.17316 0.6157928,-0.31637 0.2723298,-0.846 0.2459895,-1.8734 0.3188384,-2.81054 0.094829,-1.74482 0.1287097,-3.5093 0.3731457,-5.23255 0.124183,-2.1589 0.2494243,-4.31842 0.3398815,-6.47709 0.1268939,-1.75772 0.3072758,-3.5142 0.3475386,-5.27571 0.067762,-2.02795 0.1846291,-4.05698 0.3167106,-6.08484 0.2071081,-3.2515 0.3856364,-6.50562 0.5900518,-9.75638 0.091402,-0.85132 0.01689,-1.72434 0.1757389,-2.56377 0.056322,-0.4621 0.08449,-0.93504 0.1476596,-1.3959 -0.038003,-0.4715 -0.047858,-0.96503 -0.012652,-1.46291 -0.00428,-0.49361 0.113237,-0.92995 0.1338462,-1.40981 0.00749,-0.46452 0.056184,-0.89277 0.09114,-1.34531 0.065887,-0.50253 -0.017473,-1.00874 0.032904,-1.52007 -0.011656,-0.45038 0.074163,-0.90796 0.067943,-1.33122 -0.027038,-0.69306 0.022653,-1.40603 0.029409,-2.10883 0.034076,-0.94796 0.1814323,-1.87913 0.3085856,-2.80478 0.103885,-0.68798 0.02938,-1.38304 0.06321,-2.0764 0.01589,-0.65885 0.07688,-1.31581 0.150411,-1.96698 0.08225,-1.07965 0.01879,-2.20326 0.252422,-3.24454 0.05945,-0.5058 -0.165982,-0.98428 -0.01802,-1.47346 0.14906,-0.48806 -0.0314,-1.06095 0.12899,-1.55016 0.160541,-0.77871 0.05196,-1.58975 0.140866,-2.38562 0.07427,-0.97371 0.2279165,-1.96408 0.188286,-2.93238 -0.03905,-0.49985 -0.284543,-0.7244 -0.507055,-0.66136 -0.298468,-0.005 -0.5879364,-0.11275 -0.8786521,-0.19365 -0.028192,0.004 -0.05637,0.008 -0.084547,0.011 z m -0.8243736,0.005 c -0.014986,0.11405 0.035072,-0.0783 0,0 z m 1.0098634,0.11094 c 0.081294,0.0565 -0.045162,0.0461 0,0 z m -1.0983739,0.13085 c 0.060928,0.19494 -0.00458,-0.19487 0,0 z m -0.1976196,0.99191 c -0.048516,-0.0937 0.00784,-0.24245 0,0 z m -0.054702,0.11682 c 0.014649,0.1068 -0.085517,-0.12245 0,0 z m -0.4391942,0.21989 c -0.018007,0.13387 0.089579,-0.18121 0,0 z m 0.1336677,0.0202 c -0.1190927,0.25871 0.065754,-0.01 0,0 z m 0.3942909,0.25484 c -0.050734,0.026 -0.046648,-0.11502 0,0 z m -0.259791,0.1082 c 0.045385,-0.0473 0.00925,-0.2009 0,0 z m -0.1453412,0.0374 c -0.052948,0.12893 0.064851,-0.0545 0,0 z m 0.037306,0.4204 c -0.032013,0.29733 0.035831,-0.0747 0,0 z m 0.021553,0.27159 c 0.017055,0.11969 0.075167,-0.21672 0,0 z m -0.057296,0.023 c -0.064513,0.13218 0.069212,-0.0496 0,0 z m 0.068265,0.15087 0.00558,-0.0108 z m -0.032643,0.3525 c 0.013829,0.1117 0.032231,-0.0573 0,0 z m 0.058635,0.14688 c -0.028369,0.24096 0.042746,-0.0426 0,0 z m -0.2846221,0.11085 c 0.038744,0.13186 -0.019695,-0.27039 0,0 z m 0.084337,-0.008 c -0.2496867,0.4492 0.2819999,0.40864 0.028343,-0.007 z m -0.4018464,0.28285 c 0.061572,-0.0179 0.052864,-0.0153 0,0 z m 0.1297454,0.0306 c -0.052213,0.11396 0.1366283,-0.11225 0,0 z m -0.010229,0.33537 c -0.00249,0.16509 0.052564,-0.24841 0,0 z m -0.047626,0.0811 c 0.00199,0.11241 0.022895,-0.0955 0,0 z m 0.022027,0.0442 c 0.050866,0.0341 0.070005,-0.14864 0,0 z m 0.085359,0.0578 c -0.084747,0.18599 0.094154,-0.0456 0,0 z m 0.4536152,0.17069 c 0.087533,0.20243 -0.060526,-0.0233 0,0 z m -0.1663218,0.0581 c -0.067925,0.25754 0.054519,-0.0743 0,0 z m 0.2148482,0.17509 c 0.083382,0.15455 -0.065066,-0.009 0,0 z m -0.074785,0.0403 c 0.035149,0.22581 -0.041753,-0.0128 0,0 z m -0.069729,0.0657 c 0.051554,0.31467 -0.043323,-0.0813 0,0 z m -0.018476,0.28086 c 0.091405,0.15842 -0.049759,0.0381 0,0 z m 2.7870227,0.23599 c -0.0627,0.24549 0.05265,-0.0711 0,0 z m -2.82156,0.34023 c -0.049742,0.003 -0.024662,-0.13912 0,0 z m 2.765559,0.2099 c -0.06441,0.22204 0.04934,-0.0382 0,0 z m -2.9299747,-0.1009 c 0.026189,0.11775 0.019777,-0.0606 0,0 z m 0.044814,0.10303 c 0.015956,0.0743 0.035705,-0.0491 0,0 z m -0.1445149,0.10593 c 0.00143,0.11521 0.068331,-0.20516 0,0 z m -0.022451,0.37456 c -0.0818,0.27419 0.049043,-0.0348 0,0 z m 0.1790985,0.33248 c 0.00163,0.14297 0.051635,-0.24342 0,0 z m -0.1024223,-0.0476 c -0.094949,0.41183 0.057576,-0.0952 0,0 z m -0.085567,6e-4 c -0.119784,0.10707 0.056881,0.0215 0,0 z m 2.9710404,0.29428 c -0.04217,0.14693 0.135567,-0.19733 0,0 z M 6.725482,232.75921 c 0.056261,-0.0628 0.049892,-0.0557 0,0 z m 2.9845955,0.15045 c -0.136399,0.20459 0.06332,-0.002 0,0 z m -2.8386569,0.29618 c -0.0033,0.11921 0.07727,-0.22598 0,0 z m 2.7037759,1.04857 c 0.0394,0.12101 0.07689,-0.21977 0,0 z m -3.0012189,-0.0103 c -0.1022836,0.18495 0.069073,-0.0371 0,0 z m 0.3357002,0.16211 c 0.1051357,0.43276 -0.2298501,-0.0779 0,0 z m -0.3713208,0.29497 c 0.014734,-0.15495 0.00865,-0.091 0,0 z m -0.015463,0.0933 c -0.019799,0.0723 0.03881,-0.0349 0,0 z m 2.8534725,0.17016 c 0.0021,0.19671 -0.04031,0.044 -0.0016,-0.0289 z m -2.8996014,-0.11406 c -0.020551,0.32687 0.034016,-0.0714 0,0 z m 3.0374214,0.11984 c 0.04422,0.0787 -0.04063,0.0228 -0.02088,-0.009 z m -3.1038495,-0.0544 c -0.040098,0.31007 0.037854,-0.0707 0,0 z m 3.0735175,0.12136 c 0.108759,0.18263 -0.0754,-0.023 0,0 z m -2.9151255,0.28215 c 0.030169,0.0738 0.00273,-0.16183 0,0 z m -0.056133,-0.0239 c -0.059218,0.0558 0.069433,-0.0442 0,0 z m -0.00604,0.10078 c -0.089738,0.28083 0.065342,-0.0329 0,0 z m -0.065238,0.073 c -0.031448,0.18966 0.099931,-0.26931 0,0 z m -0.013254,-0.0258 -0.00329,-1.3e-4 z m 0.1590186,0.11864 c 0.052167,0.29019 0.00214,-0.16434 0,0 z m 0.3289649,0.0824 c -0.00195,0.15546 -0.076653,0.0613 0,0 z m -0.4957554,0.0658 c -0.066481,0.14972 -0.00942,0.0973 0.015427,-0.0104 z m 0.023448,0.0479 c 0.035269,0.29562 0.015346,-0.15062 0,0 z m 2.9842524,0.26597 c -0.09098,0.28555 0.04289,0.003 0,0 z m 0.03666,0.0196 c -0.01688,0.0837 0.03438,-0.0428 0,0 z m 0.0075,0.23142 c -0.0639,0.25721 0.04452,-0.0172 0,0 z m -0.05932,0.0841 c -0.0632,0.15448 0.06218,-0.0684 0,0 z m -2.5552037,0.50668 c -0.064172,-0.0113 -0.035532,-0.20177 0,0 z m 0.049484,0.0526 c 0.00541,0.16111 -0.068937,-0.18768 0,0 z m 0.1420496,0.0999 c 0.00715,0.12424 -0.098827,-0.17901 0,0 z m -0.3232214,0.12366 c 0.1157029,0.10687 -0.041881,0.0249 0,0 z m 0.094817,0.80556 c -0.043432,0.13556 0.024588,-0.27474 0,0 z m 0.059887,0.0711 c -0.00983,0.11854 -0.059368,-0.25028 0,0 z m -0.1540122,0.12714 c 0.013189,0.40941 -0.3184692,-0.0476 -0.043089,-0.0714 0.029886,-0.0422 0.031983,0.0335 0.043089,0.0714 z m 0.1037543,-0.0571 c 0.1082352,0.10705 -0.07489,-0.0236 0,0 z m -0.044515,0.41339 c -0.019659,0.15411 -0.019238,-0.22293 0,0 z m 0.049135,0.0309 c -0.048399,0.0428 0.055045,-0.16477 0,0 z m 2.5432024,0.35216 c -2.14e-4,-0.26766 -3.62e-4,-0.45358 0,0 z m -3.0581265,0.22563 c 0.1009439,-0.10221 0.1089902,-0.11036 0,0 z m 0.3453728,0.63192 c 0.078982,0.28197 -0.1442447,-0.12787 0,0 z m -0.4225282,0.13393 c -0.048636,0.31109 0.043437,-0.0807 0,0 z m 0.037865,0.0268 c -0.079947,0.2015 0.054274,-0.0254 0,0 z m 0.1322053,0.0995 c -0.065036,0.21254 0.063249,-0.043 0,0 z m -0.3857424,0.0416 c -0.080725,0.16541 0.064252,-0.0441 0,0 z m 0.1544896,0.057 c -0.087118,0.11236 0.06687,-0.031 0,0 z m 0.057816,0.0782 -0.00304,-0.004 z m -0.2177849,0.12088 c -0.045796,0.42304 0.046657,-0.0681 0,0 z m 0.240194,0.54806 c -0.061313,0.24998 0.1230093,-0.18955 0,0 z m 2.8789393,0.15691 -0.0086,-0.022 z m -2.7964446,0.0308 c 0.061703,-0.0392 0.050868,-0.0323 0,0 z m 2.5481677,2.05308 c -0.041091,0.0439 -0.00524,-0.11146 0,0 z m -2.8140895,1.61516 c 0.037496,0.0725 -0.018647,-0.19001 0,0 z m -0.1896743,0.53004 c -0.037106,0.23314 0.054969,-0.10647 0,0 z m 0.072585,0.35321 c -0.072036,0.13644 0.064048,-0.0403 0,0 z m 2.7480339,1.5451 c -0.036932,0.32458 -0.02797,-0.13442 0,0 z m -2.6558475,1.7193 c 0.078768,0.0728 0.00366,0.10856 -0.014316,-0.009 z m 0.066451,0.62022 c 2.012e-4,0.12444 -0.064207,-0.18139 0,0 z m -0.2061254,0.4752 c 0.003,0.11037 -0.031923,-0.0677 0,0 z m 0.017008,0.073 c 0.094729,0.15989 -0.063486,0.009 0,0 z m -0.1900208,0.7828 c 0.00701,0.1114 0.07559,-0.25635 0,0 z m -0.1449867,0.47054 0.00558,-0.0108 z m 0.054403,0.19003 c -0.040397,0.17794 0.031729,0.0523 0.00829,-0.0285 z m 0.3055631,1.18633 c -0.035223,0.0468 -0.06525,-0.10917 0,0 z m -0.099263,0.20166 c 0.024575,0.13148 -0.087781,-0.12365 0,0 z m -0.340319,0.2168 c -0.056483,0.0983 0.076697,-0.065 0,0 z m -0.030954,0.68115 c -0.079957,0.27099 0.05874,-0.0856 0,0 z m 0.2524987,0.61721 c 0.00145,0.12172 -0.088649,-0.19521 0,0 z m -0.294458,-0.0269 c -0.1108346,0.1333 0.057222,0.0111 0,0 z m 0.1600999,0.2378 c 0.053322,0.26847 -0.046388,-0.0673 0,0 z m -2.99e-4,0.1697 c -0.011982,0.16683 -0.04429,-0.23356 0,0 z m -0.019991,0.44329 c 0.036013,0.18724 -0.013497,0.0974 -0.011834,-0.0221 z m -0.2570307,0.5561 c -0.040397,0.17796 0.031729,0.0523 0.00829,-0.0285 z m 2.9550233,0.23222 c 0.078249,0.15682 -0.00122,-0.24376 0,0 z m 0.057338,0.0313 0.00924,-0.0719 z m -2.9891716,1.24312 c 0.0043,0.0892 0.020978,-0.0813 0,0 z m -0.1538822,0.28964 -0.017439,-0.0658 z m 0.079792,0.20555 c 0.1030178,0.1465 -0.00724,-0.0742 0,0 z m -0.042909,0.003 c -0.09665,0.25166 0.071339,-0.0736 0,0 z m 0.2357032,0.40345 c 0.085926,0.26758 -0.06379,-0.0729 0,0 z m -0.273394,1.15842 c -0.00897,0.12899 0.077843,-0.24978 0,0 z m -0.1075962,0.31324 c 0.00809,0.11822 0.060743,-0.2768 0,0 z m 0.019904,0.40887 -0.014316,-0.009 z m -0.1252555,0.79995 0.00681,-0.004 z m 0.2115671,0.58661 c -0.014112,0.10865 -0.079158,-0.20491 0,0 z m 0.07331,0.0392 c 0.011892,0.13435 -0.078527,-0.17587 0,0 z m 0.1799188,0.40111 c -0.016365,0.0793 -0.056681,-0.13191 0,0 z m 2.1284091,6.47673 0.027978,-0.0277 z m -2.8358097,0.57797 c 0.062554,-0.0669 0.054251,-0.19988 0,0 z m 2.6924633,0.5787 c 0.055586,-0.021 0.058094,-0.17417 0,0 z m -2.8665511,0.43225 c -0.026823,0.12541 0.096043,-0.19052 0,0 z m 0.023534,1.39112 c -0.082532,0.20923 0.047664,-0.0144 0,0 z m -0.3248103,1.00076 c 0.091193,-0.14479 0.097884,-0.15541 0,0 z m 0.1172265,0.10238 -0.022361,-0.066 z m -0.175859,0.0251 c -0.1059588,0.30487 0.045164,0.0266 0,0 z m 0.087218,0.74027 c -0.036836,0.18955 0.031477,0.0649 0.00665,-0.0286 z m 2.9888257,0.10733 c -0.1250811,0.21859 0.060557,-0.0301 0,0 z m -2.9313165,0.003 c -0.096024,0.20005 0.06146,-0.0425 0,0 z m 0.3034039,0.26186 c 0.00781,0.31328 -0.048747,-0.34619 0,0 z m -0.499814,0.18845 c 0.065409,-0.0122 0.058318,-0.14515 0,0 z m 0.019256,0.14526 c -0.1058236,0.14768 0.051196,0.0282 0,0 z m 0.4507247,0.38356 c 0.1324097,0.11974 -0.058437,0.0517 0,0 z m 0.027114,0.12394 c -0.021846,0.25789 -0.019642,-0.11489 0,0 z m 0.1246949,0.14243 c -0.053444,0.0157 -0.05416,-0.14159 0,0 z m -0.4252042,0.61828 c -0.035054,0.19123 0.033127,0.0564 0.00994,-0.0284 z m 2.9168095,0.1837 c -0.0568,0.0916 0.069448,-0.0736 0,0 z m -2.7276982,0.31102 c 0.038913,0.24022 -0.046758,-0.0765 0,0 z M 4.420618,276.2081 c 0.065979,0.10576 -0.076578,-0.0307 0,0 z m -0.2718833,0.85879 c -0.014724,0.13374 0.0753,-0.17631 0,0 z m -0.1057845,0.11835 0.033265,-0.006 z m 0.444204,0.57469 c 0.00423,0.14729 -0.055871,-0.19404 0,0 z m -0.1372564,0.0122 c 0.064546,0.0992 -0.084056,-0.0338 0,0 z m 0.068695,0.14371 c 0.033802,0.23922 -0.047478,-0.0758 0,0 z m 2.5359903,0.63714 c -0.00621,0.10027 0.035762,-0.0666 0,0 z m -2.8989332,0.28643 c 0.039064,0.03 0.04833,-0.1583 0,0 z m 0.1931728,0.28976 c -0.033455,0.11376 0.00345,-0.1707 0,0 z m -0.3357411,0.74416 c -0.04359,0.12808 0.051005,-0.0448 0,0 z m 0.2818168,1.30811 c -0.034646,0.0701 -0.040666,-0.14693 0,0 z m -0.3980042,0.43827 c -0.1141105,0.13939 0.05917,-0.0265 0,0 z m 0.032728,0.57911 c -0.010587,0.12503 0.099423,-0.2109 0,0 z m 0.4549566,0.066 c -0.067507,-0.0323 -0.041251,-0.18812 0,0 z m -0.5311603,0.24491 c 0.054916,-0.008 0.049068,-0.15585 9.2e-5,-2e-4 z m 0.040587,0.69498 c 0.012663,0.18882 0.034312,-0.28982 0,0 z m 0.2373819,0.0461 c 0.1007518,0.13258 -0.060848,0.01 0,0 z m 3.48e-4,0.15892 c 0.026081,0.1134 -0.095837,-0.11724 0,0 z m -0.050127,0.23258 c -0.051909,0.0502 -0.066875,-0.16232 0,0 z m -0.3021079,0.12815 c 0.022604,0.11783 0.021006,-0.30369 0,0 z m 0.2877268,0.0843 c 0.053801,0.25835 -0.051333,-0.0464 0,0 z m 2.5921659,1.67577 c -0.061319,0.11309 0.083657,-0.0639 0,0 z m -2.6041663,0.14355 c 0.1036817,0.10932 -0.069699,-0.0139 0,0 z m -0.3825034,0.67364 c -0.081637,0.10645 -0.00667,0.12808 0.012147,-0.0106 z m 0.5385899,0.8386 c 0.074677,0.12858 -0.076045,-0.0261 0,0 z m -0.507643,-0.0102 0.00517,-0.004 z m -0.066367,0.037 c 0.075953,-0.023 0.037181,-0.0113 0,0 z m 0.065328,0.17244 c 0.05123,0.0178 0.064856,-0.17733 0,0 z m -0.1625623,0.10515 c -0.089774,0.16646 0.04451,0.046 0,0 z m 0.4268462,0.48007 c 0.00388,0.11338 -0.1034819,-0.19163 0,0 z m 0.1293147,0.038 c -0.00161,-0.0587 0.090338,-0.11617 0,0 z m -0.075431,0.051 c -0.044736,0.007 0.058329,-0.15584 0,0 z m 0.021371,0.0551 c 0.095064,0.14308 -0.05439,0.0206 0,0 z m -0.2145462,0.20405 c 0.046057,0.24596 -0.048547,-0.0727 0,0 z m 2.5798585,0.23456 c -0.1387695,0.19889 0.065464,0.005 0,0 z m -2.5023551,0.39336 c -0.068621,0.005 -0.047515,-0.1841 0,0 z m -0.4434664,-0.0656 c 0.093595,-0.0517 0.016195,-0.009 0,0 z m 0.2882922,0.23956 c 0.040504,0.10076 -0.041854,-0.0335 0,0 z m -0.2468856,0.11243 c -0.041123,-0.12033 -0.021128,-0.0619 0,0 z m 0.4771045,0.13553 c 0.0543,0.14542 -0.042756,0.0963 0,0 z m -0.047105,0.45661 c 0.079736,0.11334 -0.070225,-0.024 0,0 z m -0.6300357,0.65963 c 0.013591,0.2692 0.032264,-0.4095 0,0 z m 0.2686032,0.37596 0.00108,-0.018 z m 0.1781775,0.0185 c 0.046862,0.24117 -0.050052,-0.062 0,0 z m -0.3279273,0.11984 c -0.078291,0.11175 0.086246,-0.063 0,0 z m 0.4944206,0.0387 c 0.1397623,0.19071 -0.076868,-0.0334 0,0 z m -0.3972262,0.17832 c 8.03e-5,0.146 0.074987,-0.26285 0,0 z m -0.141368,0.026 c -0.072672,0.27933 0.058693,-0.11799 0,0 z m 0.074263,0.13312 c 0.024249,0.10008 0.056292,-0.27594 0,0 z m -0.026768,0.4466 c -0.030971,0.27768 0.085752,-0.17129 0,0 z m -0.1898908,1.21971 c -0.1127823,0.12778 0.05617,0.0148 0,0 z m 0.4436862,0.47355 c -0.056199,0.008 -0.033736,-0.17945 0,0 z m 1.3101136,0.26076 c 0.096893,0.24426 -0.063133,-0.0316 0,0 z m -0.015196,0.1438 c -0.058436,-0.009 -0.061873,-0.17939 0,0 z m -0.3431608,-0.0102 c 0.046849,0.1623 -0.024335,0.0649 -0.012675,-0.009 z m -0.1939935,0.0533 c 0.1672903,0.20616 -0.098068,0.0296 0,0 z M 3.90504,294.0858 c -0.069733,0.15919 -0.00866,0.10019 0.015638,-0.0139 z m -0.7482106,0.18889 c 0.047939,-0.006 0.050731,-0.0795 0,0 z m 0.2023237,0.10964 0.00695,-0.061 z m 0.6242943,0.0948 -0.00164,-7e-5 z m -0.2836691,0.0675 c -0.062444,0.16926 0.016786,0.0534 0.012342,-0.0138 z m 0.1668747,0.0973 c -0.1025734,0.2298 0.061991,-0.0413 0,0 z m -0.2060829,0.11774 -0.0089,-0.0436 z m 0.2292693,0.15404 c -0.03086,0.17711 0.021617,0.10525 0.00458,-0.0214 z"
       id="rect66191-1" />
  </g>
</svg>
