<?xml version="1.0" encoding="UTF-8" standalone="no"?>
<svg
   xmlns="http://www.w3.org/2000/svg"
   width="280"
   height="330"
   viewBox="0 0 74.083332 87.312502"
   version="1.1"
   id="svg830">
  <defs
     id="defs824" />
  <metadata
     id="metadata827">
  </metadata>
  <g
     id="layer1"
     transform="translate(0,-209.68749)">
    <path
       style="opacity:1;fill:#000000;fill-opacity:1;stroke-width:0.50661182;stroke-miterlimit:4;stroke-dasharray:none"
       d="M 271.11133 52.285156 L 48.140625 52.287109 C 45.40218 52.287109 43.005209 54.490059 42.765625 57.228516 L 25.132812 258.75977 A 41.071422 41.071422 0 0 0 12.171875 263.03711 L 16.826172 269.07812 A 33.571429 33.571429 0 0 1 31.429688 265.71484 A 33.571429 33.571429 0 0 1 64.183594 292.11914 L 71.832031 292.11914 A 41.071422 41.071422 0 0 0 70.410156 286.62695 L 208.4375 286.62695 A 41.071425 41.071425 0 0 0 207.01562 292.11914 L 214.66406 292.11914 A 33.571429 33.571429 0 0 1 247.41797 265.71484 A 33.571429 33.571429 0 0 1 262.02148 269.07812 L 266.67578 263.03711 A 41.071425 41.071425 0 0 0 257.91211 259.64258 L 275.62305 57.226562 C 275.86263 54.488109 273.84978 52.285156 271.11133 52.285156 z M 56.601562 60.603516 L 261.19531 60.603516 C 264.34599 60.603516 266.66041 63.138414 266.38477 66.289062 L 249.58398 258.32617 A 41.071425 41.071425 0 0 0 247.41797 258.21484 A 41.071425 41.071425 0 0 0 213.26562 276.56836 L 65.583984 276.56836 A 41.071422 41.071422 0 0 0 33.615234 258.32031 L 50.417969 66.289062 C 50.69361 63.138414 53.450887 60.603516 56.601562 60.603516 z M 31.427734 270.71484 A 28.571428 28.571428 0 0 0 2.8574219 299.28516 A 28.571428 28.571428 0 0 0 31.427734 327.85742 A 28.571428 28.571428 0 0 0 60 299.28516 A 28.571428 28.571428 0 0 0 31.427734 270.71484 z M 248 270.71484 A 28.571428 28.571428 0 0 0 219.42969 299.28516 A 28.571428 28.571428 0 0 0 248 327.85742 A 28.571428 28.571428 0 0 0 276.57227 299.28516 A 28.571428 28.571428 0 0 0 248 270.71484 z M 31.427734 275.17773 A 24.642857 24.107142 0 0 1 56.072266 299.28516 A 24.642857 24.107142 0 0 1 31.427734 323.39258 A 24.642857 24.107142 0 0 1 6.7851562 299.28516 A 24.642857 24.107142 0 0 1 31.427734 275.17773 z M 248 275.17773 A 24.642857 24.107142 0 0 1 272.64453 299.28516 A 24.642857 24.107142 0 0 1 248 323.39258 A 24.642857 24.107142 0 0 1 223.35742 299.28516 A 24.642857 24.107142 0 0 1 248 275.17773 z "
       transform="matrix(0.26458333,0,0,0.26458333,0,209.68749)"
       id="rect1403" />
    <path
       style="opacity:1;fill:#000000;fill-opacity:1;stroke-width:7.42677116;stroke-linecap:round;stroke-linejoin:bevel;stroke-miterlimit:4.5999999;stroke-dasharray:none;paint-order:fill markers stroke"
       d="M 16.517578 7.546875 C 14.576815 7.5890126 12.879444 8.9850851 12.519531 10.972656 L 12.429688 11.46875 C 12.018359 13.74026 13.5156 15.901172 15.787109 16.3125 L 106.06641 32.660156 L 106.06641 52.585938 C 106.06641 54.894388 107.92397 56.753906 110.23242 56.753906 C 112.54087 56.753906 114.40039 54.894388 114.40039 52.585938 L 114.40039 29.353516 C 114.40039 28.142573 113.88003 27.064662 113.06055 26.304688 C 112.45872 25.363158 111.49018 24.659092 110.29883 24.443359 L 17.361328 7.6152344 C 17.077389 7.5638183 16.79483 7.5408553 16.517578 7.546875 z "
       transform="matrix(0.26458333,0,0,0.26458333,0,209.68749)"
       id="rect854" />
  </g>
</svg>
