<svg version="1.1" viewBox="0.0 0.0 100.0 100.0" fill="none" stroke="none" stroke-linecap="square" stroke-miterlimit="10" xmlns:xlink="http://www.w3.org/1999/xlink" xmlns="http://www.w3.org/2000/svg"><clipPath id="p.0"><path d="m0 0l100.0 0l0 100.0l-100.0 0l0 -100.0z" clip-rule="nonzero"/></clipPath><g clip-path="url(#p.0)"><path fill="#000000" fill-opacity="0.0" d="m0 0l100.0 0l0 100.0l-100.0 0z" fill-rule="evenodd"/><path fill="#000000" d="m60.22599 54.40395c-1.4237747 0 -2.563034 1.0592194 -2.563034 2.382969c0 1.3226547 1.1392593 2.4345627 2.563034 2.4345627c1.4792633 0 2.6185226 -1.111908 2.6185226 -2.4345627c0 -1.3237495 -1.1392593 -2.382969 -2.6185226 -2.382969z" fill-rule="evenodd"/><path fill="#000000" d="m72.07527 54.40395c-1.4237747 0 -2.5618515 1.0592194 -2.5618515 2.382969c0 1.3226547 1.1380768 2.4345627 2.5618515 2.4345627c1.4237747 0 2.6185226 -1.111908 2.6185226 -2.4345627c0 -1.3237495 -1.1947479 -2.382969 -2.6185226 -2.382969z" fill-rule="evenodd"/><path fill="#000000" d="m83.92405 54.40395c-3.415413 0 -3.415413 4.8175316 0 4.8175316l2.960884 0l0 -4.8175316z" fill-rule="evenodd"/><path fill="#000000" d="m86.88866 54.40395l0 4.8175316l5.921776 0l0 -4.8175316z" fill-rule="evenodd"/><path fill="#000000" d="m92.81388 54.40395l0 4.8175316l2.9608917 0c3.473259 0 3.473259 -4.8175316 0 -4.8175316z" fill-rule="evenodd"/><path fill="#000000" d="m72.07477 59.912243c-3.4165878 0 -3.4165878 4.8175316 0 4.8175316l2.9608917 0l0 -4.8175316z" fill-rule="evenodd"/><path fill="#000000" d="m75.039375 59.912243l0 4.8175316l2.9608917 0c3.473259 0 3.473259 -4.8175316 0 -4.8175316z" fill-rule="evenodd"/><path fill="#000000" d="m64.37504 65.42054c-3.415413 0 -3.415413 4.816429 0 4.816429l2.960884 0l0 -4.816429z" fill-rule="evenodd"/><path fill="#000000" d="m67.339645 65.42054l0 4.816429l5.921776 0l0 -4.816429z" fill-rule="evenodd"/><path fill="#000000" d="m73.26487 65.42054l0 4.816429l5.920601 0l0 -4.816429z" fill-rule="evenodd"/><path fill="#000000" d="m79.18892 65.42054l0 4.816429l5.921776 0l0 -4.816429z" fill-rule="evenodd"/><path fill="#000000" d="m85.11415 65.42054l0 4.816429l5.921776 0l0 -4.816429z" fill-rule="evenodd"/><path fill="#000000" d="m91.039375 65.42054l0 4.816429l2.9608917 0c3.473259 0 3.473259 -4.816429 0 -4.816429z" fill-rule="evenodd"/><path fill="#000000" d="m60.22599 70.927734c-1.4237747 0 -2.563034 1.059227 -2.563034 2.3829727c0 1.3226547 1.1392593 2.381874 2.563034 2.381874c1.4792633 0 2.6185226 -1.0592194 2.6185226 -2.381874c0 -1.3237457 -1.1392593 -2.3829727 -2.6185226 -2.3829727z" fill-rule="evenodd"/><path fill="#000000" d="m72.07527 70.927734c-1.4237747 0 -2.5618515 1.059227 -2.5618515 2.3829727c0 1.3226547 1.1380768 2.381874 2.5618515 2.381874c1.4237747 0 2.6185226 -1.0592194 2.6185226 -2.381874c0 -1.3237457 -1.1947479 -2.3829727 -2.6185226 -2.3829727z" fill-rule="evenodd"/><path fill="#000000" d="m89.84928 70.927734c-3.4165955 0 -3.4165955 4.764847 0 4.764847l2.960884 0l0 -4.764847z" fill-rule="evenodd"/><path fill="#000000" d="m92.81388 70.927734l0 4.764847l2.9608917 0c3.473259 0 3.473259 -4.764847 0 -4.764847z" fill-rule="evenodd"/><path fill="#000000" d="m72.07527 76.383316c-1.4237747 0 -2.5618515 1.111908 -2.5618515 2.4345627c0 1.3237534 1.1380768 2.3829727 2.5618515 2.3829727c1.4237747 0 2.6185226 -1.0592194 2.6185226 -2.3829727c0 -1.3226547 -1.1947479 -2.4345627 -2.6185226 -2.4345627z" fill-rule="evenodd"/><path fill="#000000" d="m83.924545 76.383316c-1.4225922 0 -2.5618515 1.111908 -2.5618515 2.4345627c0 1.3237534 1.1392593 2.3829727 2.5618515 2.3829727c1.4237823 0 2.6197052 -1.0592194 2.6197052 -2.3829727c0 -1.3226547 -1.1959229 -2.4345627 -2.6197052 -2.4345627z" fill-rule="evenodd"/><path fill="#000000" d="m95.775 76.383316c-1.4237747 0 -2.563034 1.111908 -2.563034 2.4345627c0 1.3237534 1.1392593 2.3829727 2.563034 2.3829727c1.4225998 0 2.6185226 -1.0592194 2.6185226 -2.3829727c0 -1.3226547 -1.1959229 -2.4345627 -2.6185226 -2.4345627z" fill-rule="evenodd"/><path fill="#000000" d="m64.37504 81.89161c-3.415413 0 -3.415413 4.816437 0 4.816437l2.960884 0l0 -4.816437z" fill-rule="evenodd"/><path fill="#000000" d="m65.26487 81.89161l0 4.816437l5.920601 0l0 -4.816437z" fill-rule="evenodd"/><path fill="#000000" d="m71.18892 81.89161l0 4.816437l5.921776 0l0 -4.816437z" fill-rule="evenodd"/><path fill="#000000" d="m75.039375 81.89161l0 4.816437l2.9608917 0c3.473259 0 3.473259 -4.816437 0 -4.816437z" fill-rule="evenodd"/><path fill="#000000" d="m89.84978 81.89161c-1.4237747 0 -2.5618515 1.1108093 -2.5618515 2.4345627c0 1.3237534 1.1380768 2.381874 2.5618515 2.381874c1.4237747 0 2.6185226 -1.0581207 2.6185226 -2.381874c0 -1.3237534 -1.1947479 -2.4345627 -2.6185226 -2.4345627z" fill-rule="evenodd"/><path fill="#000000" d="m30.082272 14.441446c4.953701 0 8.939331 3.7056255 8.939331 8.311314l0 10.852346c0 4.6045876 -3.98563 8.363998 -8.939331 8.363998l-11.729036 0c-4.953704 0 -8.939333 -3.7594109 -8.939333 -8.363998l0 -10.852346c0 -4.605688 3.985629 -8.311314 8.939333 -8.311314zm-14.063038 -5.5057507c-6.8898506 0 -12.525927 5.188534 -12.525927 11.647034l0 15.2450905c0 6.405815 5.6360765 11.645939 12.525927 11.645939l16.397038 0c6.8898506 0 12.5259285 -5.2401237 12.5259285 -11.645939l0 -15.2450905c0 -6.4585 -5.636078 -11.647034 -12.5259285 -11.647034z" fill-rule="evenodd"/><path fill="#1c4587" d="m20.69414 19.952284c-2.9597073 0 -5.351557 2.2227173 -5.351557 4.9755936l0 6.5111866c0 2.7528763 2.3918495 5.029377 5.351557 5.029377l7.0610332 0c2.9597092 0 5.3515587 -2.2765007 5.3515587 -5.029377l0 -6.5111866c0 -2.7528763 -2.3918495 -4.9755936 -5.3515587 -4.9755936z" fill-rule="evenodd"/><path fill="#000000" d="m83.853836 14.441446c4.953705 0 8.939331 3.7056255 8.939331 8.311314l0 10.852346c0 4.6045876 -3.9856262 8.363998 -8.939331 8.363998l-11.672371 0c-4.9525223 0 -8.995998 -3.7594109 -8.995998 -8.363998l0 -10.852346c0 -4.605688 4.043476 -8.311314 8.995998 -8.311314zm-14.063042 -5.5057507c-6.889847 0 -12.525925 5.188534 -12.525925 11.647034l0 15.2450905c0 6.405815 5.636078 11.645939 12.525925 11.645939l16.397041 0c6.946518 0 12.527107 -5.2401237 12.527107 -11.645939l0 -15.2450905c0 -6.4585 -5.5805893 -11.647034 -12.527107 -11.647034z" fill-rule="evenodd"/><path fill="#1c4587" d="m74.52355 19.952284c-2.960884 0 -5.409401 2.2227173 -5.409401 4.9755936l0 6.5111866c0 2.7528763 2.4485168 5.029377 5.409401 5.029377l7.003189 0c2.960884 0 5.351555 -2.2765007 5.351555 -5.029377l0 -6.5111866c0 -2.7528763 -2.3906708 -4.9755936 -5.351555 -4.9755936z" fill-rule="evenodd"/><path fill="#000000" d="m30.082272 59.53853c4.953701 0 8.939331 3.7056236 8.939331 8.31131l0 10.905037c0 4.60569 -3.98563 8.31131 -8.939331 8.31131l-11.729036 0c-4.953704 0 -8.939333 -3.7056198 -8.939333 -8.31131l0 -10.905037c0 -4.605686 3.985629 -8.31131 8.939333 -8.31131zm-14.063038 -5.504654c-6.8898506 0 -12.525927 5.2401237 -12.525927 11.645935l0 15.245094c0 6.405815 5.6360765 11.647034 12.525927 11.647034l16.397038 0c6.8898506 0 12.5259285 -5.2412186 12.5259285 -11.647034l0 -15.245094c0 -6.4058113 -5.636078 -11.645935 -12.5259285 -11.645935z" fill-rule="evenodd"/><path fill="#1c4587" d="m20.69414 65.04937c-2.9597073 0 -5.351557 2.2238083 -5.351557 4.9766846l0 6.5638733c0 2.7528763 2.3918495 4.9755936 5.351557 4.9755936l7.0610332 0c2.9597092 0 5.3515587 -2.2227173 5.3515587 -4.9755936l0 -6.5638733c0 -2.7528763 -2.3918495 -4.9766846 -5.3515587 -4.9766846z" fill-rule="evenodd"/></g></svg>