<svg id="Layer_1" data-name="Layer 1" xmlns="http://www.w3.org/2000/svg" viewBox="0 0 178 50"><defs><style>.cls-1{fill:#fff;}</style></defs><path class="cls-1" d="M54.5,38.22V13.47H71.58v4.18H59.66v6H69.87v4.13H59.66V34H71.58v4.18Z"/><path class="cls-1" d="M86.55,38.5a11.67,11.67,0,0,1-2.14-.19,5.7,5.7,0,0,1-1.93-.74A4,4,0,0,1,81,35.91h-.29l-.15,2.31H76.12V11.5h4.8V21.89h.25a4.1,4.1,0,0,1,1.42-1.42,5.76,5.76,0,0,1,1.83-.68,10.77,10.77,0,0,1,2.2-.2,7.93,7.93,0,0,1,2.89.46,4.23,4.23,0,0,1,1.93,1.55,7.71,7.71,0,0,1,1.09,2.9,25,25,0,0,1,.34,4.55,24.19,24.19,0,0,1-.36,4.58,7.54,7.54,0,0,1-1.11,2.88,4.17,4.17,0,0,1-2,1.53A8.11,8.11,0,0,1,86.55,38.5Zm-2.07-4.1a9,9,0,0,0,1.92-.16,1.67,1.67,0,0,0,1.08-.68,3.6,3.6,0,0,0,.45-1.6c.07-.72.11-1.69.11-2.91s0-2.19-.11-2.9a3.54,3.54,0,0,0-.45-1.58,1.64,1.64,0,0,0-1.08-.68,8.88,8.88,0,0,0-1.92-.17,5.83,5.83,0,0,0-1.86.24,1.69,1.69,0,0,0-1,.84A3.92,3.92,0,0,0,81,26.51a23,23,0,0,0-.12,2.54A23.46,23.46,0,0,0,81,31.6a4.31,4.31,0,0,0,.53,1.73,2.15,2.15,0,0,0,1.05.8A5.23,5.23,0,0,0,84.48,34.4Z"/><path class="cls-1" d="M101.92,38.5a7.75,7.75,0,0,1-3-.52A3.65,3.65,0,0,1,97,36.26a6.83,6.83,0,0,1-.64-3.15,9.18,9.18,0,0,1,.51-3.4,3.27,3.27,0,0,1,1.78-1.8,9.09,9.09,0,0,1,3.53-.55h1l1.49,0,1.69,0,1.52.05v-.72a8.41,8.41,0,0,0-.16-1.87,1.49,1.49,0,0,0-.69-1,3.78,3.78,0,0,0-1.51-.39q-1-.09-2.58-.09l-1.82,0c-.7,0-1.38.06-2,.11s-1.18.11-1.56.18v-3.6c1-.19,2.17-.33,3.38-.43s2.43-.14,3.67-.14a20.38,20.38,0,0,1,3.63.27,7,7,0,0,1,2.38.84A3.57,3.57,0,0,1,112,22.18a6.41,6.41,0,0,1,.58,2.08,22.43,22.43,0,0,1,.15,2.77V38.22h-4.47L108.06,36h-.22a4.48,4.48,0,0,1-1.65,1.67,6,6,0,0,1-2.11.7A16.08,16.08,0,0,1,101.92,38.5Zm2.32-3.66a7.69,7.69,0,0,0,1.33-.11,3.23,3.23,0,0,0,1.07-.38,1.6,1.6,0,0,0,.69-.7,3.54,3.54,0,0,0,.44-1.15,8.72,8.72,0,0,0,.14-1.66V30.3h-4.36a6.48,6.48,0,0,0-1.6.15.91.91,0,0,0-.7.65,5.12,5.12,0,0,0-.17,1.51,4,4,0,0,0,.2,1.42,1.14,1.14,0,0,0,.89.64A9.54,9.54,0,0,0,104.24,34.84Z"/><path class="cls-1" d="M117.9,38.22V19.88h4.47l.15,2.3h.33a4.34,4.34,0,0,1,1.23-1.48,5.1,5.1,0,0,1,1.87-.84,10.73,10.73,0,0,1,2.53-.27,8.18,8.18,0,0,1,3,.46,3.88,3.88,0,0,1,1.76,1.37,5.11,5.11,0,0,1,.82,2.23,21.56,21.56,0,0,1,.2,3.09V38.22h-4.8V28.51a26,26,0,0,0-.1-2.65,3.37,3.37,0,0,0-.42-1.4,1.51,1.51,0,0,0-1-.59,8.44,8.44,0,0,0-1.77-.15,5.46,5.46,0,0,0-1.88.27,1.91,1.91,0,0,0-1.06.88,4.51,4.51,0,0,0-.45,1.55,16.53,16.53,0,0,0-.13,2.3v9.5Z"/><path class="cls-1" d="M145.26,38.5a8.21,8.21,0,0,1-3-.46,3.77,3.77,0,0,1-1.78-1.37,5.24,5.24,0,0,1-.82-2.23,21.56,21.56,0,0,1-.2-3.09V19.88h4.8v9.7a23,23,0,0,0,.11,2.65,3,3,0,0,0,.43,1.4,1.56,1.56,0,0,0,1,.59,8.17,8.17,0,0,0,1.75.15,5.4,5.4,0,0,0,1.87-.27,2,2,0,0,0,1.05-.88,4.29,4.29,0,0,0,.47-1.55,16.53,16.53,0,0,0,.13-2.3V19.88h4.8V38.22h-4.47l-.15-2.31h-.29a4.19,4.19,0,0,1-1.25,1.48,5.28,5.28,0,0,1-1.89.84A10.73,10.73,0,0,1,145.26,38.5Z"/><path class="cls-1" d="M159.11,38.22l6.46-9.32-6.21-9h5.31l3.88,5.68h.22l3.89-5.68h5.09l-6.29,9L178,38.22h-5.38l-4.14-6h-.22l-4.07,6Z"/><path class="cls-1" d="M42.51,10.56,25.26.71A5.4,5.4,0,0,0,22.71,0h-.24a5.4,5.4,0,0,0-2.55.7L2.67,10.56A5.3,5.3,0,0,0,0,15.14V34.86a5.3,5.3,0,0,0,2.67,4.58l17.25,9.85h0a5.4,5.4,0,0,0,2.55.7h.24a5.4,5.4,0,0,0,2.55-.7l17.25-9.85a5.3,5.3,0,0,0,2.67-4.58V15.14A5.3,5.3,0,0,0,42.51,10.56ZM23.82,30l3.87-2.21a.4.4,0,0,0,0-.7l-1.44-.82a.8.8,0,0,0-.82,0l-2.84,1.62L9.36,20.35a.39.39,0,0,1-.2-.35.4.4,0,0,1,.2-.36l12-6.85V20l-3.86,2.2a.41.41,0,0,0,0,.71l1.44.82a.85.85,0,0,0,.82,0l2.83-1.62,13.23,7.56A.39.39,0,0,1,36,30a.4.4,0,0,1-.2.36l-12,6.85ZM21.15,47.18,3.9,37.32a2.86,2.86,0,0,1-1.43-2.46V15.14A2.86,2.86,0,0,1,3.9,12.68L21.15,2.82l.21-.1V10L8.13,17.53a2.83,2.83,0,0,0,0,4.93L21.36,30v7.19l-12-6.85a.4.4,0,0,1-.2-.36.39.39,0,0,1,.2-.35l3.25-1.87a.4.4,0,0,0,0-.7l-1.42-.81a.83.83,0,0,0-.81,0L8.13,27.54a2.83,2.83,0,0,0,0,4.93L21.36,40v7.25l-.21-.1ZM42.71,34.86a2.86,2.86,0,0,1-1.43,2.46L24,47.18l-.21.1V40l13.23-7.56a2.83,2.83,0,0,0,0-4.93L23.82,20V12.79l12,6.85A.4.4,0,0,1,36,20a.39.39,0,0,1-.2.35l-3.24,1.86a.4.4,0,0,0,0,.7l1.45.83a.83.83,0,0,0,.82,0l2.2-1.27a2.83,2.83,0,0,0,0-4.93L23.82,10V2.72l.21.1,17.25,9.86a2.86,2.86,0,0,1,1.43,2.46Z"/></svg>