<svg version="1.1" viewBox="0.0 0.0 380.0 111.0" fill="none" stroke="none" stroke-linecap="square" stroke-miterlimit="10" xmlns:xlink="http://www.w3.org/1999/xlink" xmlns="http://www.w3.org/2000/svg"><clipPath id="p.0"><path d="m0 0l380.0 0l0 111.0l-380.0 0l0 -111.0z" clip-rule="nonzero"/></clipPath><g clip-path="url(#p.0)"><path fill="#000000" fill-opacity="0.0" d="m0 0l380.0 0l0 111.0l-380.0 0z" fill-rule="evenodd"/><path fill="#000000" fill-opacity="0.0" d="m-10.0 -22.47244l390.01575 0l0 145.44882l-390.01575 0z" fill-rule="evenodd"/><path fill="#000000" d="m66.234375 51.07068q0 10.359375 -3.359375 18.0q-3.34375 7.640625 -9.28125 12.265625l12.28125 9.65625l-9.6875 8.578125l-15.75 -12.640625q-2.6875 0.453125 -5.578125 0.453125q-9.203125 0 -16.421875 -4.421875q-7.203125 -4.421875 -11.171875 -12.609375q-3.953125 -8.203125 -4.0 -18.875l0 -3.65625q0 -10.921875 3.9375 -19.218748q3.9375 -8.296875 11.125 -12.734375q7.1875 -4.453125 16.421875 -4.453125q9.25 0 16.421875 4.453125q7.1875 4.4375 11.125 12.734375q3.9375 8.296873 3.9375 19.171873l0 3.296875zm-15.4375 -3.34375q0 -11.640625 -4.171875 -17.671873q-4.15625 -6.046875 -11.875 -6.046875q-7.671875 0 -11.84375 5.96875q-4.15625 5.968748 -4.203125 17.484373l0 3.609375q0 11.328125 4.15625 17.578125q4.171875 6.234375 12.0 6.234375q7.65625 0 11.765625 -6.015625q4.125 -6.015625 4.171875 -17.546875l0 -3.59375zm53.976562 11.578125l-12.125 0l0 27.0625l-15.234375 0l0 -73.9375l27.46875 0q13.09375 0 20.203125 5.84375q7.109375 5.828125 7.109375 16.499998q0 7.5625 -3.28125 12.625q-3.265625 5.046875 -9.921875 8.046875l16.0 30.203125l0 0.71875l-16.34375 0l-13.875 -27.0625zm-12.125 -12.34375l12.28125 0q5.734375 0 8.875 -2.921875q3.15625 -2.921875 3.15625 -8.046875q0 -5.234373 -2.96875 -8.218748q-2.96875 -3.0 -9.109375 -3.0l-12.234375 0l0 22.187498z" fill-rule="nonzero"/><path fill="#fc4c02" d="m159.01953 74.13318l32.34375 0l0 12.234375l-47.578125 0l0 -73.9375l15.234375 0l0 61.703125zm54.382812 -8.53125l10.15625 -34.1875l15.734375 0l-22.078125 63.484375l-1.21875 2.890625q-4.9375 10.765625 -16.25 10.765625q-3.203125 0 -6.5 -0.953125l0 -11.125l2.234375 0.046875q4.15625 0 6.203125 -1.265625q2.0625 -1.265625 3.234375 -4.21875l1.734375 -4.515625l-19.25 -55.109375l15.796875 0l10.203125 34.1875zm45.1875 -34.1875l0.46875 6.359373q5.890625 -7.374998 15.78125 -7.374998q8.734375 0 13.0 5.140623q4.265625 5.125 4.375 15.328125l0 35.5l-14.671875 0l0 -35.140625q0 -4.671875 -2.03125 -6.78125q-2.03125 -2.109375 -6.765625 -2.109375q-6.1875 0 -9.28125 5.28125l0 38.75l-14.6875 0l0 -54.953125l13.8125 0zm64.69922 32.90625l-5.28125 5.28125l0 16.765625l-14.671875 0l0 -78.0l14.671875 0l0 43.21875l2.84375 -3.65625l14.0625 -16.515623l17.625 0l-19.859375 22.906248l21.59375 32.046875l-16.859375 0l-14.125 -22.046875z" fill-rule="nonzero"/><path fill="#000000" fill-opacity="0.0" d="m336.0 -8.0l44.0 0l0 82.42519l-44.0 0z" fill-rule="evenodd"/><path fill="#000000" d="m370.79688 18.779373l-2.8125 8.9375l-1.828125 0l-2.828125 -8.96875l0 8.96875l-3.25 0l0 -13.765625l4.015625 0l2.96875 9.34375l3.203125 -9.34375l3.78125 0l0 13.765625l-3.25 0l0 -8.9375zm-12.515625 -2.09375l-3.28125 0l0 10.953125l-3.59375 0l0 -10.953125l-3.453125 0l0 -2.734375l10.328125 0l0 2.734375z" fill-rule="nonzero"/></g></svg>