<?xml version="1.0" encoding="UTF-8" standalone="no"?>
<svg
   xmlns="http://www.w3.org/2000/svg"
   width="200"
   height="200"
   viewBox="0 0 52.916665 52.916668"
   version="1.1"
   id="svg49">
  <defs
     id="defs43" />
  <metadata
     id="metadata46">
  </metadata>
  <g
     id="layer1"
     transform="translate(0,-244.08332)">
    <path
       style="fill:#000000;stroke-width:0.99999994"
       d="M 16.427734 6.4277344 C 10.887735 6.4277344 6.4277344 10.887741 6.4277344 16.427734 L 6.4277344 183.21484 C 6.4277344 188.75484 10.887735 193.21484 16.427734 193.21484 L 183.21484 193.21484 C 188.75485 193.21484 193.21484 188.75484 193.21484 183.21484 L 193.21484 16.427734 C 193.21484 10.887741 188.75485 6.4277344 183.21484 6.4277344 L 16.427734 6.4277344 z M 12.142578 96.785156 L 187.5 96.785156 L 187.5 178.43164 C 187.5 183.65385 183.29644 187.85742 178.07422 187.85742 L 21.568359 187.85742 C 16.346142 187.85742 12.142578 183.65385 12.142578 178.43164 L 12.142578 96.785156 z "
       transform="matrix(0.26458333,0,0,0.26458333,0,244.08332)"
       id="rect147" />
    <g
       aria-label="SCAN"
       transform="scale(0.90784295,1.1015121)"
       style="font-style:normal;font-weight:normal;font-size:15.61931992px;line-height:1.25;font-family:sans-serif;letter-spacing:0px;word-spacing:0px;fill:#ffffff;fill-opacity:1;stroke:none;stroke-width:0.39048299"
       id="text80">
      <path
         d="m 15.695935,229.45003 v 1.50245 q -0.877062,-0.41947 -1.654977,-0.62538 -0.777915,-0.20592 -1.502444,-0.20592 -1.258393,0 -1.944789,0.4881 -0.6787689,0.4881 -0.6787689,1.38805 0,0.75503 0.4499709,1.14399 0.457597,0.38133 1.723616,0.61776 l 0.930448,0.19066 q 1.723616,0.32795 2.539665,1.15925 0.823675,0.82367 0.823675,2.21172 0,1.65497 -1.113487,2.50916 -1.10586,0.85418 -3.24894,0.85418 -0.808422,0 -1.723617,-0.18304 -0.9075677,-0.18304 -1.8837752,-0.54149 v -1.58634 q 0.9380744,0.52624 1.8380152,0.79317 0.899942,0.26693 1.769377,0.26693 1.319405,0 2.036307,-0.51861 0.716903,-0.51861 0.716903,-1.47956 0,-0.83893 -0.518611,-1.31178 -0.510983,-0.47285 -1.685483,-0.70928 l -0.938074,-0.18304 Q 9.9073295,234.88782 9.1370408,234.15566 8.366752,233.4235 8.366752,232.11935 q 0,-1.51007 1.0601004,-2.3795 1.0677266,-0.86944 2.9362486,-0.86944 0.800796,0 1.632097,0.14491 0.831302,0.1449 1.700737,0.43471 z"
         style="stroke-width:0.39048299;fill:#ffffff"
         id="path119" />
      <path
         d="m 27.311278,229.95339 v 1.62447 q -0.777915,-0.72453 -1.662603,-1.08298 -0.877061,-0.35845 -1.868522,-0.35845 -1.952415,0 -2.989636,1.19738 -1.03722,1.18975 -1.03722,3.44723 0,2.24986 1.03722,3.44724 1.037221,1.18975 2.989636,1.18975 0.991461,0 1.868522,-0.35845 0.884688,-0.35845 1.662603,-1.08298 v 1.60921 q -0.808421,0.54912 -1.715989,0.82368 -0.899942,0.27456 -1.906656,0.27456 -2.585424,0 -4.072615,-1.57871 -1.487191,-1.58634 -1.487191,-4.3243 0,-2.74558 1.487191,-4.32429 1.487191,-1.58634 4.072615,-1.58634 1.021968,0 1.921909,0.27456 0.907568,0.26693 1.700736,0.80842 z"
         style="stroke-width:0.39048299;fill:#ffffff"
         id="path121" />
      <path
         d="m 33.496468,230.59403 -2.089694,5.66658 h 4.187015 z m -0.869435,-1.5177 h 1.746496 l 4.339548,11.38655 h -1.601591 l -1.03722,-2.921 H 30.94155 l -1.037221,2.921 h -1.62447 z"
         style="stroke-width:0.39048299;fill:#ffffff"
         id="path123" />
      <path
         d="m 40.37568,229.07633 h 2.074441 l 5.048823,9.52565 v -9.52565 h 1.494818 v 11.38655 h -2.074441 l -5.048823,-9.52565 v 9.52565 H 40.37568 Z"
         style="stroke-width:0.39048299;fill:#ffffff"
         id="path125" />
    </g>
    <text
       xml:space="preserve"
       style="font-style:normal;font-weight:normal;font-size:25.36401558px;line-height:1.25;font-family:sans-serif;letter-spacing:0px;word-spacing:0px;fill:#000000;fill-opacity:1;stroke:none;stroke-width:0.63410032"
       x="6.2401266"
       y="276.93695"
       id="text84"
       transform="scale(0.95152016,1.0509499)"><tspan
         id="tspan82"
         x="6.2401266"
         y="276.93695"
         style="font-style:normal;font-variant:normal;font-weight:bold;font-stretch:normal;font-family:sans-serif;-inkscape-font-specification:'sans-serif Bold';stroke-width:0.63410032">ME</tspan></text>
  </g>
</svg>
