<?xml version="1.0" encoding="UTF-8" standalone="no"?>
<svg
   xmlns="http://www.w3.org/2000/svg"
   width="200"
   height="200"
   viewBox="0 0 52.916665 52.916668"
   version="1.1"
   id="svg49">
  <defs
     id="defs43" />
  <metadata
     id="metadata46">
  </metadata>
  <g
     id="layer1"
     transform="translate(0,-244.08332)">
    <path
       style="fill:#000000;stroke-width:0.99999994"
       d="M 16.427734 6.4277344 C 10.887735 6.4277344 6.4277344 10.887735 6.4277344 16.427734 L 6.4277344 49.285156 L 12.142578 49.285156 L 12.142578 21.212891 C 12.142578 15.990673 16.346142 11.785156 21.568359 11.785156 L 53.927734 11.785156 L 53.927734 6.4277344 L 16.427734 6.4277344 z M 151.78516 6.4277344 L 151.78516 11.785156 L 178.07422 11.785156 C 183.29644 11.785156 187.5 15.990673 187.5 21.212891 L 187.5 49.285156 L 193.21484 49.285156 L 193.21484 16.427734 C 193.21484 10.887735 188.75484 6.4277344 183.21484 6.4277344 L 151.78516 6.4277344 z M 6.4277344 155.35742 L 6.4277344 183.21484 C 6.4277344 188.75484 10.887735 193.21484 16.427734 193.21484 L 53.927734 193.21484 L 53.927734 187.85742 L 21.568359 187.85742 C 16.346142 187.85742 12.142578 183.65386 12.142578 178.43164 L 12.142578 155.35742 L 6.4277344 155.35742 z M 187.5 155.35742 L 187.5 178.43164 C 187.5 183.65386 183.29644 187.85742 178.07422 187.85742 L 151.78516 187.85742 L 151.78516 193.21484 L 183.21484 193.21484 C 188.75484 193.21484 193.21484 188.75484 193.21484 183.21484 L 193.21484 155.35742 L 187.5 155.35742 z "
       transform="matrix(0.26458333,0,0,0.26458333,0,244.08332)"
       id="rect51" />
  </g>
  <g id="layer2"/>
</svg>
